<svg version="1.2" baseProfile="tiny-ps" xmlns="http://www.w3.org/2000/svg" viewBox="0 0 3435 1281" width="3435" height="1281">
	<title>natural-4821583-ai</title>
	<style>
		tspan { white-space:pre }
		.shp0 { fill: #000328 } 
	</style>
	<g id="15">
		<path id="&lt;Path&gt;" class="shp0" d="M-0.97 947.62C31.7 946.67 73.3 950.07 113.19 966.51C197.03 1001.07 413.02 1104.75 444.7 1142.19C476.39 1179.63 597.15 1188.27 626.05 1214.19C645.31 1231.47 666.47 1251.63 689.52 1274.67L693.56 1282.59L-0.97 1282.59L-0.97 947.62Z" />
		<path id="&lt;Path&gt;" class="shp0" d="M2598.75 1282.59L2607.58 1274.67C2624.86 1253.55 2642.4 1239.15 2660.18 1231.47C2686.85 1219.95 2754.47 1234.35 2786.38 1199.79C2818.29 1165.23 2898.47 1202.67 2927.29 1194.03C2956.12 1185.39 3048.23 1205.55 3077.03 1185.39C3105.82 1165.23 3169.19 1055.79 3307.46 1006.83C3357.71 989.04 3400.67 980.78 3436.31 977.18L3436.31 1282.59L2598.75 1282.59Z" />
	</g>
</svg>