<svg version="1.2" baseProfile="tiny-ps" xmlns="http://www.w3.org/2000/svg" viewBox="0 0 3435 1281" width="3435" height="1281">
	<title>natural-4821583-ai</title>
	<style>
		tspan { white-space:pre }
		.shp0 { fill: #01064b } 
	</style>
	<g id="14">
		<path id="&lt;Path&gt;" class="shp0" d="M-0.97 886.22C71.74 877.71 211.26 862.33 257.41 863.75C320.87 865.71 637.8 877.23 669.42 871.47C690.49 867.63 733.65 866.67 798.89 868.59L1012.04 894.51C1082.89 915.65 1124.13 931.97 1135.75 943.48C1153.19 960.75 1181.36 978.03 1193.19 989.55C1201.08 997.23 1214.35 1006.83 1233 1018.35L1138.79 1032.75L1104.18 1015.47L1118.29 1035.63C1089.07 1035.63 1052.55 1037.55 1008.71 1041.39C942.95 1047.15 807.61 1032.75 770.16 1035.63C745.19 1037.55 716.38 1041.75 683.72 1048.23L628.98 1029.87L651.81 1052.91C625.1 1049.07 590.62 1050.03 548.38 1055.79C485.03 1064.43 479.37 1070.19 436.12 1075.95C407.28 1079.79 375.64 1082.67 341.19 1084.59C297.37 1096.11 255.66 1107.63 216.08 1119.15C176.5 1130.67 122.14 1143.15 53.02 1156.59L-0.97 1168.99L-0.97 886.22Z" />
		<path id="&lt;Path&gt;" class="shp0" d="M1994.16 975.15C2086.31 959.79 2155.3 951.15 2201.12 949.23C2246.94 947.31 2339.21 934.83 2477.95 911.79C2545.17 894.51 2591.27 882.99 2616.23 877.23C2641.2 871.47 2696.85 880.38 2783.2 903.95C2852.36 876.23 2918.64 861.33 2982.05 859.23C3045.46 857.14 3110.71 849.7 3177.81 836.91L3436.31 825.48L3436.31 1221.69L3246.91 1173.87C3154.77 1146.99 3056.82 1130.67 2953.05 1124.91C2797.39 1116.27 2705.51 1073.07 2660.18 1070.19C2629.96 1068.27 2590.38 1072.11 2541.43 1081.71C2526.02 1079.79 2511.58 1075.95 2498.13 1070.19C2484.68 1064.43 2468.35 1060.59 2449.14 1058.67L2472.21 1020.21L2437.49 1048.23L2367.46 1038.51L2397.46 1006.83L2359.01 1029.87C2340.41 1027.95 2323.06 1026.99 2306.97 1026.99C2290.87 1026.99 2274.81 1022.19 2258.78 1012.59L2276.39 992.43L2244.3 1006.83L2189.06 1001.07L2201.12 986.67L1994.16 975.15Z" />
		<path id="&lt;Path&gt;" class="shp0" d="M833.51 1159.47C842.15 1153.71 857.45 1136.43 897.32 1130.67C937.19 1124.91 968.86 1117.39 977.5 1136.99C986.15 1156.59 1009.19 1147.42 1023.59 1163.52C1033.19 1174.26 1041.81 1181.55 1049.46 1185.39C1026.45 1196.91 1000.55 1205.55 971.75 1211.31C942.95 1217.07 920.82 1219.95 905.35 1219.95L902.57 1202.67L892.88 1219.95C868.62 1223.79 851.69 1222.83 842.11 1217.07C832.54 1211.31 826.78 1202.67 824.85 1191.15L824.85 1176.75L833.51 1159.47Z" />
	</g>
</svg>