<svg version="1.2" baseProfile="tiny-ps" xmlns="http://www.w3.org/2000/svg" viewBox="0 0 3435 2224" width="3435" height="2224">
	<title>mountain_water_red-svg-svg</title>
	<defs>
		<linearGradient id="grd1" gradientUnits="userSpaceOnUse"  x1="1539.298" y1="1543.427" x2="1560.243" y2="1844.439">
			<stop offset="0" stop-color="#d1f2fa"  />
			<stop offset="1" stop-color="#ffbc3a"  />
		</linearGradient>
		<linearGradient id="grd2" gradientUnits="userSpaceOnUse"  x1="-52.904" y1="1104.936" x2="70.55" y2="2879.218">
			<stop offset="0" stop-color="#ff3030"  />
			<stop offset="1" stop-color="#4854ff"  />
		</linearGradient>
		<linearGradient id="grd3" gradientUnits="userSpaceOnUse"  x1="1555.105" y1="1505.486" x2="1558.059" y2="1738.349">
			<stop offset="0" stop-color="#d1f2fa"  />
			<stop offset="0.98" stop-color="#36a8dc"  />
			<stop offset="1" stop-color="#17719b"  />
		</linearGradient>
		<linearGradient id="grd4" gradientUnits="userSpaceOnUse"  x1="1545.42" y1="1475.834" x2="1560.714" y2="2681.502">
			<stop offset="0" stop-color="#ffffff"  />
			<stop offset="0.29" stop-color="#ff7b0f"  />
		</linearGradient>
		<linearGradient id="grd5" gradientUnits="userSpaceOnUse"  x1="3436.818" y1="1492.264" x2="405.715" y2="1492.264">
			<stop offset="0" stop-color="#6565ff"  />
			<stop offset="0.99" stop-color="#ff2d11"  />
		</linearGradient>
		<linearGradient id="grd6" gradientUnits="userSpaceOnUse"  x1="3130.358" y1="1598.481" x2="-3139.733" y2="1598.481">
			<stop offset="0" stop-color="#fe2500"  />
			<stop offset="1" stop-color="#828bff"  />
		</linearGradient>
		<linearGradient id="grd7" gradientUnits="userSpaceOnUse"  x1="1852.125" y1="1931.427" x2="1873.07" y2="2232.439">
			<stop offset="0" stop-color="#d1f2fa"  />
			<stop offset="1" stop-color="#ffbc3a"  />
		</linearGradient>
		<linearGradient id="grd8" gradientUnits="userSpaceOnUse"  x1="-52.827" y1="1492.936" x2="70.627" y2="3267.218">
			<stop offset="0" stop-color="#ff3030"  />
			<stop offset="1" stop-color="#4854ff"  />
		</linearGradient>
		<linearGradient id="grd9" gradientUnits="userSpaceOnUse"  x1="1867.932" y1="1893.486" x2="1870.886" y2="2126.349">
			<stop offset="0" stop-color="#d1f2fa"  />
			<stop offset="0.98" stop-color="#36a8dc"  />
			<stop offset="1" stop-color="#17719b"  />
		</linearGradient>
		<linearGradient id="grd10" gradientUnits="userSpaceOnUse"  x1="1560.057" y1="1863.834" x2="1575.351" y2="3069.502">
			<stop offset="0" stop-color="#ffffff"  />
			<stop offset="0.29" stop-color="#ff7b0f"  />
		</linearGradient>
		<linearGradient id="grd11" gradientUnits="userSpaceOnUse"  x1="3030.717" y1="1880.264" x2="-0.385" y2="1880.264">
			<stop offset="0.01" stop-color="#fe2500"  />
			<stop offset="1" stop-color="#b95787"  />
		</linearGradient>
		<linearGradient id="grd12" gradientUnits="userSpaceOnUse"  x1="4282.435" y1="1986.481" x2="-1987.656" y2="1986.481">
			<stop offset="0" stop-color="#5f6bff"  />
			<stop offset="1" stop-color="#fe2500"  />
		</linearGradient>
		<linearGradient id="grd13" gradientUnits="userSpaceOnUse"  x1="1539.298" y1="2295.427" x2="1560.243" y2="2596.439">
			<stop offset="0" stop-color="#d1f2fa"  />
			<stop offset="1" stop-color="#ffbc3a"  />
		</linearGradient>
		<linearGradient id="grd14" gradientUnits="userSpaceOnUse"  x1="-52.904" y1="1856.936" x2="70.55" y2="3631.218">
			<stop offset="0" stop-color="#ff3030"  />
			<stop offset="1" stop-color="#4854ff"  />
		</linearGradient>
		<linearGradient id="grd15" gradientUnits="userSpaceOnUse"  x1="1555.105" y1="2257.486" x2="1558.059" y2="2490.349">
			<stop offset="0" stop-color="#d1f2fa"  />
			<stop offset="0.98" stop-color="#36a8dc"  />
			<stop offset="1" stop-color="#17719b"  />
		</linearGradient>
		<linearGradient id="grd16" gradientUnits="userSpaceOnUse"  x1="1545.42" y1="2227.834" x2="1560.714" y2="3433.502">
			<stop offset="0" stop-color="#ffffff"  />
			<stop offset="0.29" stop-color="#ff7b0f"  />
		</linearGradient>
		<linearGradient id="grd17" gradientUnits="userSpaceOnUse"  x1="3436.818" y1="2244.264" x2="405.715" y2="2244.264">
			<stop offset="0" stop-color="#6565ff"  />
			<stop offset="0.99" stop-color="#ff2d11"  />
		</linearGradient>
		<linearGradient id="grd18" gradientUnits="userSpaceOnUse"  x1="3130.358" y1="2350.481" x2="-3139.733" y2="2350.481">
			<stop offset="0" stop-color="#fe2500"  />
			<stop offset="1" stop-color="#828bff"  />
		</linearGradient>
		<linearGradient id="grd19" gradientUnits="userSpaceOnUse"  x1="1852.125" y1="2613.427" x2="1873.07" y2="2914.439">
			<stop offset="0" stop-color="#d1f2fa"  />
			<stop offset="1" stop-color="#ffbc3a"  />
		</linearGradient>
		<linearGradient id="grd20" gradientUnits="userSpaceOnUse"  x1="-52.827" y1="2174.936" x2="70.627" y2="3949.218">
			<stop offset="0" stop-color="#ff3030"  />
			<stop offset="1" stop-color="#4854ff"  />
		</linearGradient>
		<linearGradient id="grd21" gradientUnits="userSpaceOnUse"  x1="1867.932" y1="2575.486" x2="1870.886" y2="2808.349">
			<stop offset="0" stop-color="#d1f2fa"  />
			<stop offset="0.98" stop-color="#36a8dc"  />
			<stop offset="1" stop-color="#17719b"  />
		</linearGradient>
		<linearGradient id="grd22" gradientUnits="userSpaceOnUse"  x1="1560.057" y1="2545.834" x2="1575.351" y2="3751.502">
			<stop offset="0" stop-color="#ffffff"  />
			<stop offset="0.29" stop-color="#ff7b0f"  />
		</linearGradient>
		<linearGradient id="grd23" gradientUnits="userSpaceOnUse"  x1="3030.717" y1="2562.264" x2="-0.385" y2="2562.264">
			<stop offset="0" stop-color="#6565ff"  />
			<stop offset="0.99" stop-color="#ff2d11"  />
		</linearGradient>
		<linearGradient id="grd24" gradientUnits="userSpaceOnUse"  x1="4282.435" y1="2668.481" x2="-1987.656" y2="2668.481">
			<stop offset="0" stop-color="#fe2500"  />
			<stop offset="1" stop-color="#828bff"  />
		</linearGradient>
		<linearGradient id="grd25" gradientUnits="userSpaceOnUse"  x1="1538.788" y1="444.156" x2="1559.733" y2="745.168">
			<stop offset="0" stop-color="#d1f2fa"  />
			<stop offset="1" stop-color="#ffbc3a"  />
		</linearGradient>
		<linearGradient id="grd26" gradientUnits="userSpaceOnUse"  x1="-53.414" y1="557.226" x2="70.04" y2="2331.508">
			<stop offset="0" stop-color="#ff3030"  />
			<stop offset="1" stop-color="#4854ff"  />
		</linearGradient>
		<linearGradient id="grd27" gradientUnits="userSpaceOnUse"  x1="1554.595" y1="406.215" x2="1557.549" y2="639.078">
			<stop offset="0" stop-color="#d1f2fa"  />
			<stop offset="0.98" stop-color="#36a8dc"  />
			<stop offset="1" stop-color="#17719b"  />
		</linearGradient>
		<linearGradient id="grd28" gradientUnits="userSpaceOnUse"  x1="1544.91" y1="445.164" x2="1560.204" y2="1650.832">
			<stop offset="0" stop-color="#ffffff"  />
			<stop offset="0.29" stop-color="#ff7b0f"  />
		</linearGradient>
		<linearGradient id="grd29" gradientUnits="userSpaceOnUse"  x1="3436.307" y1="1067.673" x2="405.205" y2="1067.673">
			<stop offset="0" stop-color="#6565ff"  />
			<stop offset="0.99" stop-color="#ff2d11"  />
		</linearGradient>
		<linearGradient id="grd30" gradientUnits="userSpaceOnUse"  x1="3129.847" y1="1107.23" x2="-3140.243" y2="1107.23">
			<stop offset="0" stop-color="#fe2500"  />
			<stop offset="1" stop-color="#828bff"  />
		</linearGradient>
	</defs>
	<style>
		tspan { white-space:pre }
		.shp0 { fill: url(#grd1) } 
		.shp1 { fill: url(#grd2) } 
		.shp2 { fill: url(#grd3) } 
		.shp3 { fill: url(#grd4) } 
		.shp4 { fill: url(#grd5) } 
		.shp5 { fill: url(#grd6) } 
		.shp6 { fill: url(#grd7) } 
		.shp7 { fill: url(#grd8) } 
		.shp8 { fill: url(#grd9) } 
		.shp9 { fill: url(#grd10) } 
		.shp10 { fill: url(#grd11) } 
		.shp11 { fill: url(#grd12) } 
		.shp12 { fill: url(#grd13) } 
		.shp13 { fill: url(#grd14) } 
		.shp14 { fill: url(#grd15) } 
		.shp15 { fill: url(#grd16) } 
		.shp16 { fill: url(#grd17) } 
		.shp17 { fill: url(#grd18) } 
		.shp18 { fill: url(#grd19) } 
		.shp19 { fill: url(#grd20) } 
		.shp20 { fill: url(#grd21) } 
		.shp21 { fill: url(#grd22) } 
		.shp22 { fill: url(#grd23) } 
		.shp23 { fill: url(#grd24) } 
		.shp24 { fill: url(#grd25) } 
		.shp25 { fill: url(#grd26) } 
		.shp26 { fill: url(#grd27) } 
		.shp27 { fill: url(#grd28) } 
		.shp28 { fill: url(#grd29) } 
		.shp29 { fill: url(#grd30) } 
	</style>
	<g id="10 copy 3">
		<g id="&lt;Group&gt;">
			<path id="&lt;Path&gt;" class="shp0" d="M1562.39 1829.62C1561.9 1829.6 1561.51 1829.59 1561.22 1829.58C1561.51 1829.59 1561.9 1829.6 1562.39 1829.62Z" />
			<path id="&lt;Path&gt;" class="shp1" d="M-0.46 1773.84L814.14 1770.85L1317.96 1757.58L1386.08 1742.58C1419.96 1748.41 1453.8 1754.43 1487.58 1760.84C1489.65 1760.93 1491.73 1761.02 1493.8 1761.12C1538.23 1763.31 1582.56 1765.1 1626.91 1766.44L1627.36 1768.42C1617.82 1776.55 1610.19 1783.33 1604.46 1788.75C1598.73 1794.17 1588.73 1799.14 1574.47 1803.66L1579.94 1807.98C1609.7 1810.86 1625.5 1815.66 1627.36 1822.38C1629.93 1831.69 1571.33 1829.94 1562.39 1829.62C1571.61 1829.96 1634.18 1832.03 1646.22 1826.7C1659.23 1820.94 1633.22 1816.62 1640.16 1809.42C1647.11 1802.22 1685.06 1805.1 1726.82 1805.1C1754.66 1805.1 1791.14 1802.7 1836.26 1797.9L1692.26 1777.74L1822.65 1769.42L1888.46 1770.85C1944.19 1759.3 1999.86 1747.19 2056.35 1744.86L2052.3 1737.42L2355.15 1707.04C2335.62 1704.25 2318.75 1699.98 2304.55 1694.22C2290.34 1688.46 2264.53 1685.58 2227.13 1685.58L2265.34 1669.69C2368.22 1676.48 2893.98 1702.35 2933.45 1697.1C2968.9 1692.38 3313.28 1701.18 3436.82 1704.52L3436.82 1277.34L-0.46 1277.34L-0.46 1773.84Z" />
		</g>
		<g id="10 copy">
			<g id="&lt;Group&gt;">
				<path id="&lt;Path&gt;" class="shp2" d="M1562.39 1829.62C1561.9 1829.6 1561.51 1829.59 1561.22 1829.58C1561.51 1829.59 1561.9 1829.6 1562.39 1829.62Z" />
				<path id="&lt;Path&gt;" class="shp3" d="M1822.65 1769.42L1870.16 1770.45C1854.17 1769.08 1838.21 1767.5 1822.3 1765.9C1766.83 1760.32 1717.56 1762.26 1661.81 1761.82C1626.86 1761.54 1585.93 1757.57 1551.64 1763.71C1576.73 1764.74 1601.82 1765.68 1626.91 1766.44L1627.36 1768.42C1617.82 1776.55 1610.19 1783.33 1604.46 1788.75C1598.73 1794.17 1588.73 1799.14 1574.47 1803.66L1579.94 1807.98C1609.7 1810.86 1625.5 1815.66 1627.36 1822.38C1629.93 1831.69 1571.33 1829.94 1562.39 1829.62C1571.61 1829.96 1634.18 1832.03 1646.22 1826.7C1659.23 1820.94 1633.22 1816.62 1640.16 1809.42C1647.11 1802.22 1685.06 1805.1 1726.82 1805.1C1754.66 1805.1 1728.26 1800.37 1647.62 1790.91L1692.26 1777.74L1822.65 1769.42Z" />
				<path id="&lt;Compound Path&gt;" fill-rule="evenodd" class="shp4" d="M3436.82 1277.34L3436.82 1704.52C3313.28 1701.18 2968.9 1692.38 2933.45 1697.1C2893.98 1702.35 2368.22 1676.48 2265.34 1669.69L2227.13 1685.58C2264.53 1685.58 2290.34 1688.46 2304.55 1694.22C2318.75 1699.98 2335.62 1704.25 2355.15 1707.04L2054.6 1707.18C2061.98 1699.81 2123.61 1690.81 2112.85 1688.46C1964.47 1656.05 1786.74 1691.37 1636.26 1685.8C1553.3 1682.72 1470.57 1684.94 1387.59 1684.72C1349.62 1684.62 1311.6 1683.81 1273.76 1680.41C1248.96 1678.18 1223.47 1674.83 1200.54 1665.14C1223.54 1657.85 1253.38 1661.02 1274.4 1661.69C1316.26 1663.03 1342.17 1643.81 1384.02 1642.38C1481.85 1639.03 1595.53 1652.21 1693.22 1645.77C1886.52 1633.02 2088.53 1648.72 2279.78 1618.14C2348.46 1607.15 2407.19 1555.64 2475.71 1543.7C2480.45 1543.56 2485.18 1543.39 2489.92 1543.28C2525.24 1542.45 2560.98 1540.17 2592.35 1522.38C2607.37 1513.85 2596.66 1493.24 2581.21 1495.96C2545.62 1502.24 2510.01 1508.52 2474.4 1514.74C2440.49 1515.59 2189.98 1518.08 2156.04 1518.54C2077.14 1519.59 2422.03 1460.37 2343.14 1459.5C2179.65 1457.7 1841.26 1480.11 1677.84 1475.34C1515.18 1470.58 1320.25 1494.2 1157.52 1497.09C999.85 1499.9 842.29 1502.48 684.84 1491.24C620.24 1486.62 556.52 1491.45 491.9 1493C435.01 1494.37 528.31 1481.1 572.57 1462.38C541.57 1440.78 384.2 1439.51 408.17 1437.1C454.26 1432.47 500.44 1427.92 546.67 1424.85C684.75 1415.68 823.27 1417.34 961.55 1419.92C1238.11 1425.09 1514.26 1421.78 1790.19 1400.24C1858.48 1394.91 1926.55 1388.53 1994.93 1384.3C2054.95 1380.59 2324.19 1409.45 2380.58 1386.85C3042.66 1381.77 2333.07 1363.81 2170.34 1325.53C2117.38 1313.07 2058.14 1323.64 2006.6 1304.1C2020.08 1297.77 2038.25 1296.99 2050.97 1296.14C2074.78 1294.53 2098.52 1294.1 2122.32 1292.15C2194.81 1286.2 2267.47 1282.77 2340.16 1280.43C2372.83 1279.38 2405.51 1278.37 2438.18 1277.34L3436.82 1277.34ZM2224.89 1424.81C2146.16 1427.58 1908.32 1407.66 1755.62 1435.61C1737.46 1438.94 1845.06 1452.55 1863.62 1450.91C1942.16 1443.94 2021.04 1445.04 2099.78 1442.27C2118.32 1441.62 2243.52 1424.16 2224.89 1424.81ZM3057.38 1433.53C2950.46 1432.02 2843.63 1421.73 2736.66 1425.73C2687 1427.59 2638.64 1434.49 2589.39 1440.62C2570.6 1442.96 3135.92 1332.68 2435.07 1449.42C2394.07 1456.25 2409.38 1479.66 2481.85 1480.63C2508.92 1481 2534.79 1484.29 2561.69 1484.09C2590.75 1483.88 2619.95 1486.08 2648.97 1487.56C2709.24 1490.64 2769.49 1493.95 2829.86 1494.11C2848.46 1494.16 2848.48 1465.25 2829.86 1465.21C2775.17 1465.06 2720.58 1462.34 2665.98 1459.53C2694.99 1456.64 2724.08 1454.83 2753.4 1454.12C2854.81 1451.69 2956.02 1461 3057.38 1462.43C3075.98 1462.69 3075.99 1433.79 3057.38 1433.53Z" />
				<path id="&lt;Path&gt;" class="shp5" d="M321.38 1293.85C366.01 1288.71 410.52 1295.96 455.18 1296.66C505.9 1297.45 556.64 1296.55 607.38 1297.61C706.51 1299.68 802.59 1289.44 901.7 1292.46C1082.24 1297.94 1264.89 1308.08 1444.94 1293.76C1505.8 1288.92 1566.58 1283.28 1627.33 1277.34L-0.46 1277.34L-0.46 1773.84L814.14 1770.85L1317.96 1757.58L1386.08 1742.58C1411.54 1746.96 1432.2 1734.28 1457.6 1738.96C1513.33 1724.8 1572.71 1728.54 1631.5 1727.64C1688.59 1726.77 1746.23 1729.52 1803.07 1735.07C1850.97 1739.75 1894.62 1734.6 1942.82 1734.54C1974.18 1734.5 2016.92 1744.48 2047.4 1730.59C1904.47 1705.78 1756.75 1719.57 1612.48 1713.65C1529.14 1710.23 1445.74 1714.6 1362.37 1713.42C1299.24 1712.53 1217.92 1715.84 1163.68 1677.9C1156.52 1672.89 1153.31 1661.85 1160.76 1655.2C1185.79 1632.83 1183.78 1617.65 1215.62 1617.9C1261.33 1618.25 1341.29 1614.01 1387.03 1612.46C1588.18 1605.64 1793.22 1612.99 1993.11 1588.8C2090.66 1577 2187.84 1562.58 2284.82 1546.85C2221.44 1546.3 2158.07 1544.78 2094.69 1544.54C1926.51 1543.9 1758.14 1533.85 1590.02 1529.39C1422.99 1524.96 1256.21 1524.44 1089.16 1527.46C1007.81 1528.94 926.41 1529.54 845.06 1527.6C772.65 1525.86 700.14 1517.44 627.8 1517.22C567.86 1517.04 508.08 1523.39 448.11 1522.05C395.45 1520.87 338.76 1515.06 293.92 1484.94C288.35 1481.19 285.83 1475.27 287.28 1468.61C296.19 1427.76 345.74 1416.74 380.97 1411.53C430.06 1404.27 478.87 1386.78 528.31 1383.18C810.27 1362.61 1095.42 1398.89 1377.79 1391.72C1522.46 1388.04 1667.09 1381.41 1811.34 1369.65C1873.72 1364.56 1935.9 1359.12 1998.36 1355.18C2023.63 1353.59 2101.77 1356.27 2127.14 1352.94C2091.99 1348.87 2005.92 1334.32 1970.18 1331.34C1889.72 1324.62 1779 1320.35 1782.98 1314.06C1794.72 1295.49 1852.3 1284.28 1915.49 1277.34L1913.6 1277.34C1910.49 1277.64 1907.38 1277.92 1904.27 1278.23C1725.75 1295.94 1560.18 1335.06 1381.16 1347.18C1203.81 1359.18 1014.3 1340.09 836.75 1333.85C747.54 1330.71 658.34 1327.1 569.08 1325.84C526.2 1325.24 483.12 1326.96 440.3 1325.07C400.65 1323.32 361.02 1318.19 321.38 1322.75C302.9 1324.88 303.11 1295.95 321.38 1293.85Z" />
			</g>
		</g>
	</g>
	<g id="10 copy 4">
		<g id="&lt;Group&gt;">
			<path id="&lt;Path&gt;" class="shp6" d="M1874.05 2217.62C1874.54 2217.6 1874.93 2217.59 1875.22 2217.58C1874.93 2217.59 1874.54 2217.6 1874.05 2217.62Z" />
			<path id="&lt;Path&gt;" class="shp7" d="M3436.9 2161.84L2622.3 2158.85L2118.48 2145.58L2050.36 2130.58C2016.48 2136.41 1982.64 2142.43 1948.86 2148.84C1946.79 2148.93 1944.71 2149.02 1942.64 2149.12C1898.21 2151.31 1853.88 2153.1 1809.53 2154.44L1809.08 2156.42C1818.62 2164.55 1826.25 2171.33 1831.98 2176.75C1837.71 2182.17 1847.71 2187.14 1861.97 2191.66L1856.5 2195.98C1826.74 2198.86 1810.94 2203.66 1809.08 2210.38C1806.51 2219.69 1865.11 2217.94 1874.05 2217.62C1864.83 2217.96 1802.26 2220.03 1790.22 2214.7C1777.21 2208.94 1803.22 2204.62 1796.28 2197.42C1789.33 2190.22 1751.38 2193.1 1709.62 2193.1C1681.78 2193.1 1645.3 2190.7 1600.18 2185.9L1744.18 2165.74L1613.79 2157.42L1547.98 2158.85C1492.25 2147.3 1436.58 2135.19 1380.09 2132.86L1384.14 2125.42L1081.29 2095.04C1100.82 2092.25 1117.69 2087.98 1131.89 2082.22C1146.1 2076.46 1171.91 2073.58 1209.31 2073.58L1171.1 2057.69C1068.22 2064.48 542.46 2090.35 502.99 2085.1C467.54 2080.38 123.16 2089.18 -0.38 2092.52L-0.38 1665.34L3436.9 1665.34L3436.9 2161.84Z" />
		</g>
		<g id="10 copy">
			<g id="&lt;Group&gt;">
				<path id="&lt;Path&gt;" class="shp8" d="M1874.05 2217.62C1874.54 2217.6 1874.93 2217.59 1875.22 2217.58C1874.93 2217.59 1874.54 2217.6 1874.05 2217.62Z" />
				<path id="&lt;Path&gt;" class="shp9" d="M1613.79 2157.42L1566.28 2158.45C1582.27 2157.08 1598.23 2155.5 1614.14 2153.9C1669.61 2148.32 1718.88 2150.26 1774.63 2149.82C1809.58 2149.54 1850.51 2145.57 1884.8 2151.71C1859.71 2152.74 1834.62 2153.68 1809.53 2154.44L1809.08 2156.42C1818.62 2164.55 1826.25 2171.33 1831.98 2176.75C1837.71 2182.17 1847.71 2187.14 1861.97 2191.66L1856.5 2195.98C1826.74 2198.86 1810.94 2203.66 1809.08 2210.38C1806.51 2219.69 1865.11 2217.94 1874.05 2217.62C1864.83 2217.96 1802.26 2220.03 1790.22 2214.7C1777.21 2208.94 1803.22 2204.62 1796.28 2197.42C1789.33 2190.22 1751.38 2193.1 1709.62 2193.1C1681.78 2193.1 1708.18 2188.37 1788.82 2178.91L1744.18 2165.74L1613.79 2157.42Z" />
				<path id="&lt;Compound Path&gt;" fill-rule="evenodd" class="shp10" d="M998.26 1665.34C1030.93 1666.37 1063.61 1667.38 1096.28 1668.43C1168.97 1670.77 1241.63 1674.2 1314.12 1680.15C1337.92 1682.1 1361.66 1682.53 1385.47 1684.14C1398.19 1684.99 1416.36 1685.77 1429.84 1692.1C1378.3 1711.64 1319.06 1701.07 1266.1 1713.53C1103.37 1751.81 393.78 1769.77 1055.86 1774.85C1112.25 1797.45 1381.49 1768.59 1441.51 1772.3C1509.89 1776.53 1577.96 1782.91 1646.25 1788.24C1922.18 1809.78 2198.33 1813.09 2474.89 1807.92C2613.17 1805.34 2751.69 1803.68 2889.77 1812.85C2936 1815.92 2982.18 1820.47 3028.27 1825.1C3052.24 1827.51 2894.87 1828.78 2863.87 1850.38C2908.13 1869.1 3001.43 1882.37 2944.54 1881C2879.92 1879.45 2816.2 1874.62 2751.6 1879.24C2594.15 1890.48 2436.59 1887.9 2278.92 1885.09C2116.19 1882.2 1921.26 1858.58 1758.6 1863.34C1595.18 1868.11 1256.79 1845.7 1093.3 1847.5C1014.41 1848.37 1359.3 1907.59 1280.4 1906.54C1246.46 1906.08 995.95 1903.59 962.04 1902.74C926.43 1896.52 890.82 1890.24 855.23 1883.96C839.78 1881.24 829.07 1901.85 844.09 1910.38C875.46 1928.17 911.2 1930.45 946.52 1931.28C951.26 1931.39 955.99 1931.56 960.73 1931.7C1029.25 1943.64 1087.98 1995.15 1156.66 2006.14C1347.91 2036.72 1549.92 2021.02 1743.22 2033.77C1840.91 2040.21 1954.59 2027.03 2052.42 2030.38C2094.27 2031.81 2120.18 2051.03 2162.04 2049.69C2183.06 2049.02 2212.9 2045.85 2235.9 2053.14C2212.97 2062.83 2187.48 2066.18 2162.68 2068.41C2124.84 2071.81 2086.82 2072.62 2048.85 2072.72C1965.87 2072.94 1883.14 2070.72 1800.18 2073.8C1649.7 2079.37 1471.97 2044.05 1323.59 2076.46C1312.83 2078.81 1374.46 2087.81 1381.84 2095.18L1081.29 2095.04C1100.82 2092.25 1117.69 2087.98 1131.89 2082.22C1146.1 2076.46 1171.91 2073.58 1209.31 2073.58L1171.1 2057.69C1068.22 2064.48 542.46 2090.35 502.99 2085.1C467.54 2080.38 123.16 2089.18 -0.38 2092.52L-0.38 1665.34L998.26 1665.34ZM1336.66 1830.27C1415.4 1833.04 1494.28 1831.94 1572.82 1838.91C1591.38 1840.55 1698.98 1826.94 1680.82 1823.61C1528.12 1795.66 1290.28 1815.58 1211.55 1812.81C1192.92 1812.16 1318.12 1829.62 1336.66 1830.27ZM379.06 1850.43C480.42 1849 581.63 1839.69 683.04 1842.12C712.36 1842.83 741.45 1844.64 770.46 1847.53C715.86 1850.34 661.27 1853.06 606.58 1853.21C587.96 1853.25 587.98 1882.16 606.58 1882.11C666.95 1881.95 727.2 1878.64 787.47 1875.56C816.49 1874.08 845.69 1871.88 874.75 1872.09C901.65 1872.29 927.52 1869 954.59 1868.63C1027.06 1867.66 1042.37 1844.25 1001.37 1837.42C300.52 1720.68 865.84 1830.96 847.05 1828.62C797.8 1822.49 749.44 1815.59 699.78 1813.73C592.81 1809.73 485.98 1820.02 379.06 1821.53C360.45 1821.79 360.46 1850.69 379.06 1850.43Z" />
				<path id="&lt;Path&gt;" class="shp11" d="M3115.06 1681.85C3070.43 1676.71 3025.92 1683.96 2981.26 1684.66C2930.54 1685.45 2879.8 1684.55 2829.06 1685.61C2729.93 1687.68 2633.85 1677.44 2534.74 1680.46C2354.2 1685.94 2171.55 1696.08 1991.5 1681.76C1930.64 1676.92 1869.86 1671.28 1809.11 1665.34L3436.9 1665.34L3436.9 2161.84L2622.3 2158.85L2118.48 2145.58L2050.36 2130.58C2024.9 2134.96 2004.24 2122.28 1978.84 2126.96C1923.11 2112.8 1863.73 2116.54 1804.94 2115.64C1747.85 2114.77 1690.21 2117.52 1633.37 2123.07C1585.47 2127.75 1541.82 2122.6 1493.62 2122.54C1462.26 2122.5 1419.52 2132.48 1389.04 2118.59C1531.97 2093.78 1679.69 2107.57 1823.96 2101.65C1907.3 2098.23 1990.7 2102.6 2074.07 2101.42C2137.2 2100.53 2218.52 2103.84 2272.76 2065.9C2279.92 2060.89 2283.13 2049.85 2275.68 2043.2C2250.65 2020.83 2252.66 2005.65 2220.82 2005.9C2175.11 2006.25 2095.15 2002.01 2049.41 2000.46C1848.26 1993.64 1643.22 2000.99 1443.33 1976.8C1345.78 1965 1248.6 1950.58 1151.62 1934.85C1215 1934.3 1278.37 1932.78 1341.75 1932.54C1509.93 1931.9 1678.3 1921.85 1846.42 1917.39C2013.45 1912.96 2180.23 1912.44 2347.28 1915.46C2428.63 1916.94 2510.03 1917.54 2591.38 1915.6C2663.79 1913.86 2736.3 1905.44 2808.64 1905.22C2868.58 1905.04 2928.36 1911.39 2988.33 1910.05C3040.99 1908.87 3097.68 1903.06 3142.52 1872.94C3148.09 1869.19 3150.61 1863.27 3149.16 1856.61C3140.25 1815.76 3090.7 1804.74 3055.47 1799.53C3006.38 1792.27 2957.57 1774.78 2908.13 1771.18C2626.17 1750.61 2341.02 1786.89 2058.65 1779.72C1913.98 1776.04 1769.35 1769.41 1625.1 1757.65C1562.72 1752.56 1500.54 1747.12 1438.08 1743.18C1412.81 1741.59 1334.67 1744.27 1309.3 1740.94C1344.45 1736.87 1430.52 1722.32 1466.26 1719.34C1546.72 1712.62 1657.44 1708.35 1653.46 1702.06C1641.72 1683.49 1584.14 1672.28 1520.95 1665.34L1522.84 1665.34C1525.95 1665.64 1529.06 1665.92 1532.17 1666.23C1710.69 1683.94 1876.26 1723.06 2055.28 1735.18C2232.63 1747.18 2422.14 1728.09 2599.69 1721.85C2688.9 1718.71 2778.1 1715.1 2867.36 1713.84C2910.24 1713.24 2953.32 1714.96 2996.14 1713.07C3035.79 1711.32 3075.42 1706.19 3115.06 1710.75C3133.54 1712.88 3133.33 1683.95 3115.06 1681.85Z" />
			</g>
		</g>
	</g>
	<g id="10 copy 5">
		<g id="&lt;Group&gt;">
			<path id="&lt;Path&gt;" class="shp12" d="M1562.39 2581.62C1561.9 2581.6 1561.51 2581.59 1561.22 2581.58C1561.51 2581.59 1561.9 2581.6 1562.39 2581.62Z" />
			<path id="&lt;Path&gt;" class="shp13" d="M-0.46 2525.84L814.14 2522.85L1317.96 2509.58L1386.08 2494.58C1419.96 2500.41 1453.8 2506.43 1487.58 2512.84C1489.65 2512.93 1491.73 2513.02 1493.8 2513.12C1538.23 2515.31 1582.56 2517.1 1626.91 2518.44L1627.36 2520.42C1617.82 2528.55 1610.19 2535.33 1604.46 2540.75C1598.73 2546.17 1588.73 2551.14 1574.47 2555.66L1579.94 2559.98C1609.7 2562.86 1625.5 2567.66 1627.36 2574.38C1629.93 2583.69 1571.33 2581.94 1562.39 2581.62C1571.61 2581.96 1634.18 2584.03 1646.22 2578.7C1659.23 2572.94 1633.22 2568.62 1640.16 2561.42C1647.11 2554.22 1685.06 2557.1 1726.82 2557.1C1754.66 2557.1 1791.14 2554.7 1836.26 2549.9L1692.26 2529.74L1822.65 2521.42L1888.46 2522.85C1944.19 2511.3 1999.86 2499.19 2056.35 2496.86L2052.3 2489.42L2355.15 2459.04C2335.62 2456.25 2318.75 2451.98 2304.55 2446.22C2290.34 2440.46 2264.53 2437.58 2227.13 2437.58L2265.34 2421.69C2368.22 2428.48 2893.98 2454.35 2933.45 2449.1C2968.9 2444.38 3313.28 2453.18 3436.82 2456.52L3436.82 2029.34L-0.46 2029.34L-0.46 2525.84Z" />
		</g>
		<g id="10 copy">
			<g id="&lt;Group&gt;">
				<path id="&lt;Path&gt;" class="shp14" d="M1562.39 2581.62C1561.9 2581.6 1561.51 2581.59 1561.22 2581.58C1561.51 2581.59 1561.9 2581.6 1562.39 2581.62Z" />
				<path id="&lt;Path&gt;" class="shp15" d="M1822.65 2521.42L1870.16 2522.45C1854.17 2521.08 1838.21 2519.5 1822.3 2517.9C1766.83 2512.32 1717.56 2514.26 1661.81 2513.82C1626.86 2513.54 1585.93 2509.57 1551.64 2515.71C1576.73 2516.74 1601.82 2517.68 1626.91 2518.44L1627.36 2520.42C1617.82 2528.55 1610.19 2535.33 1604.46 2540.75C1598.73 2546.17 1588.73 2551.14 1574.47 2555.66L1579.94 2559.98C1609.7 2562.86 1625.5 2567.66 1627.36 2574.38C1629.93 2583.69 1571.33 2581.94 1562.39 2581.62C1571.61 2581.96 1634.18 2584.03 1646.22 2578.7C1659.23 2572.94 1633.22 2568.62 1640.16 2561.42C1647.11 2554.22 1685.06 2557.1 1726.82 2557.1C1754.66 2557.1 1728.26 2552.37 1647.62 2542.91L1692.26 2529.74L1822.65 2521.42Z" />
				<path id="&lt;Compound Path&gt;" fill-rule="evenodd" class="shp16" d="M3436.82 2029.34L3436.82 2456.52C3313.28 2453.18 2968.9 2444.38 2933.45 2449.1C2893.98 2454.35 2368.22 2428.48 2265.34 2421.69L2227.13 2437.58C2264.53 2437.58 2290.34 2440.46 2304.55 2446.22C2318.75 2451.98 2335.62 2456.25 2355.15 2459.04L2054.6 2459.18C2061.98 2451.81 2123.61 2442.81 2112.85 2440.46C1964.47 2408.05 1786.74 2443.37 1636.26 2437.8C1553.3 2434.72 1470.57 2436.94 1387.59 2436.72C1349.62 2436.62 1311.6 2435.81 1273.76 2432.41C1248.96 2430.18 1223.47 2426.83 1200.54 2417.14C1223.54 2409.85 1253.38 2413.02 1274.4 2413.69C1316.26 2415.03 1342.17 2395.81 1384.02 2394.38C1481.85 2391.03 1595.53 2404.21 1693.22 2397.77C1886.52 2385.02 2088.53 2400.72 2279.78 2370.14C2348.46 2359.15 2407.19 2307.64 2475.71 2295.7C2480.45 2295.56 2485.18 2295.39 2489.92 2295.28C2525.24 2294.45 2560.98 2292.17 2592.35 2274.38C2607.37 2265.85 2596.66 2245.24 2581.21 2247.96C2545.62 2254.24 2510.01 2260.52 2474.4 2266.74C2440.49 2267.59 2189.98 2270.08 2156.04 2270.54C2077.14 2271.59 2422.03 2212.37 2343.14 2211.5C2179.65 2209.7 1841.26 2232.11 1677.84 2227.34C1515.18 2222.58 1320.25 2246.2 1157.52 2249.09C999.85 2251.9 842.29 2254.48 684.84 2243.24C620.24 2238.62 556.52 2243.45 491.9 2245C435.01 2246.37 528.31 2233.1 572.57 2214.38C541.57 2192.78 384.2 2191.51 408.17 2189.1C454.26 2184.47 500.44 2179.92 546.67 2176.85C684.75 2167.68 823.27 2169.34 961.55 2171.92C1238.11 2177.09 1514.26 2173.78 1790.19 2152.24C1858.48 2146.91 1926.55 2140.53 1994.93 2136.3C2054.95 2132.59 2324.19 2161.45 2380.58 2138.85C3042.66 2133.77 2333.07 2115.81 2170.34 2077.53C2117.38 2065.07 2058.14 2075.64 2006.6 2056.1C2020.08 2049.77 2038.25 2048.99 2050.97 2048.14C2074.78 2046.53 2098.52 2046.1 2122.32 2044.15C2194.81 2038.2 2267.47 2034.77 2340.16 2032.43C2372.83 2031.38 2405.51 2030.37 2438.18 2029.34L3436.82 2029.34ZM2224.89 2176.81C2146.16 2179.58 1908.32 2159.66 1755.62 2187.61C1737.46 2190.94 1845.06 2204.55 1863.62 2202.91C1942.16 2195.94 2021.04 2197.04 2099.78 2194.27C2118.32 2193.62 2243.52 2176.16 2224.89 2176.81ZM3057.38 2185.53C2950.46 2184.02 2843.63 2173.73 2736.66 2177.73C2687 2179.59 2638.64 2186.49 2589.39 2192.62C2570.6 2194.96 3135.92 2084.68 2435.07 2201.42C2394.07 2208.25 2409.38 2231.66 2481.85 2232.63C2508.92 2233 2534.79 2236.29 2561.69 2236.09C2590.75 2235.88 2619.95 2238.08 2648.97 2239.56C2709.24 2242.64 2769.49 2245.95 2829.86 2246.11C2848.46 2246.16 2848.48 2217.25 2829.86 2217.21C2775.17 2217.06 2720.58 2214.34 2665.98 2211.53C2694.99 2208.64 2724.08 2206.83 2753.4 2206.12C2854.81 2203.69 2956.02 2213 3057.38 2214.43C3075.98 2214.69 3075.99 2185.79 3057.38 2185.53Z" />
				<path id="&lt;Path&gt;" class="shp17" d="M321.38 2045.85C366.01 2040.71 410.52 2047.96 455.18 2048.66C505.9 2049.45 556.64 2048.55 607.38 2049.61C706.51 2051.68 802.59 2041.44 901.7 2044.46C1082.24 2049.94 1264.89 2060.08 1444.94 2045.76C1505.8 2040.92 1566.58 2035.28 1627.33 2029.34L-0.46 2029.34L-0.46 2525.84L814.14 2522.85L1317.96 2509.58L1386.08 2494.58C1411.54 2498.96 1432.2 2486.28 1457.6 2490.96C1513.33 2476.8 1572.71 2480.54 1631.5 2479.64C1688.59 2478.77 1746.23 2481.52 1803.07 2487.07C1850.97 2491.75 1894.62 2486.6 1942.82 2486.54C1974.18 2486.5 2016.92 2496.48 2047.4 2482.59C1904.47 2457.78 1756.75 2471.57 1612.48 2465.65C1529.14 2462.23 1445.74 2466.6 1362.37 2465.42C1299.24 2464.53 1217.92 2467.84 1163.68 2429.9C1156.52 2424.89 1153.31 2413.85 1160.76 2407.2C1185.79 2384.83 1183.78 2369.65 1215.62 2369.9C1261.33 2370.25 1341.29 2366.01 1387.03 2364.46C1588.18 2357.64 1793.22 2364.99 1993.11 2340.8C2090.66 2329 2187.84 2314.58 2284.82 2298.85C2221.44 2298.3 2158.07 2296.78 2094.69 2296.54C1926.51 2295.9 1758.14 2285.85 1590.02 2281.39C1422.99 2276.96 1256.21 2276.44 1089.16 2279.46C1007.81 2280.94 926.41 2281.54 845.06 2279.6C772.65 2277.86 700.14 2269.44 627.8 2269.22C567.86 2269.04 508.08 2275.39 448.11 2274.05C395.45 2272.87 338.76 2267.06 293.92 2236.94C288.35 2233.19 285.83 2227.27 287.28 2220.61C296.19 2179.76 345.74 2168.74 380.97 2163.53C430.06 2156.27 478.87 2138.78 528.31 2135.18C810.27 2114.61 1095.42 2150.89 1377.79 2143.72C1522.46 2140.04 1667.09 2133.41 1811.34 2121.65C1873.72 2116.56 1935.9 2111.12 1998.36 2107.18C2023.63 2105.59 2101.77 2108.27 2127.14 2104.94C2091.99 2100.87 2005.92 2086.32 1970.18 2083.34C1889.72 2076.62 1779 2072.35 1782.98 2066.06C1794.72 2047.49 1852.3 2036.28 1915.49 2029.34L1913.6 2029.34C1910.49 2029.64 1907.38 2029.92 1904.27 2030.23C1725.75 2047.94 1560.18 2087.06 1381.16 2099.18C1203.81 2111.18 1014.3 2092.09 836.75 2085.85C747.54 2082.71 658.34 2079.1 569.08 2077.84C526.2 2077.24 483.12 2078.96 440.3 2077.07C400.65 2075.32 361.02 2070.19 321.38 2074.75C302.9 2076.88 303.11 2047.95 321.38 2045.85Z" />
			</g>
		</g>
	</g>
	<g id="10 copy 6">
		<g id="&lt;Group&gt;">
			<path id="&lt;Path&gt;" class="shp18" d="M1874.05 2899.62C1874.54 2899.6 1874.93 2899.59 1875.22 2899.58C1874.93 2899.59 1874.54 2899.6 1874.05 2899.62Z" />
			<path id="&lt;Path&gt;" class="shp19" d="M3436.9 2843.84L2622.3 2840.85L2118.48 2827.58L2050.36 2812.58C2016.48 2818.41 1982.64 2824.43 1948.86 2830.84C1946.79 2830.93 1944.71 2831.02 1942.64 2831.12C1898.21 2833.31 1853.88 2835.1 1809.53 2836.44L1809.08 2838.42C1818.62 2846.55 1826.25 2853.33 1831.98 2858.75C1837.71 2864.17 1847.71 2869.14 1861.97 2873.66L1856.5 2877.98C1826.74 2880.86 1810.94 2885.66 1809.08 2892.38C1806.51 2901.69 1865.11 2899.94 1874.05 2899.62C1864.83 2899.96 1802.26 2902.03 1790.22 2896.7C1777.21 2890.94 1803.22 2886.62 1796.28 2879.42C1789.33 2872.22 1751.38 2875.1 1709.62 2875.1C1681.78 2875.1 1645.3 2872.7 1600.18 2867.9L1744.18 2847.74L1613.79 2839.42L1547.98 2840.85C1492.25 2829.3 1436.58 2817.19 1380.09 2814.86L1384.14 2807.42L1081.29 2777.04C1100.82 2774.25 1117.69 2769.98 1131.89 2764.22C1146.1 2758.46 1171.91 2755.58 1209.31 2755.58L1171.1 2739.69C1068.22 2746.48 542.46 2772.35 502.99 2767.1C467.54 2762.38 123.16 2771.18 -0.38 2774.52L-0.38 2347.34L3436.9 2347.34L3436.9 2843.84Z" />
		</g>
		<g id="10 copy">
			<g id="&lt;Group&gt;">
				<path id="&lt;Path&gt;" class="shp20" d="M1874.05 2899.62C1874.54 2899.6 1874.93 2899.59 1875.22 2899.58C1874.93 2899.59 1874.54 2899.6 1874.05 2899.62Z" />
				<path id="&lt;Path&gt;" class="shp21" d="M1613.79 2839.42L1566.28 2840.45C1582.27 2839.08 1598.23 2837.5 1614.14 2835.9C1669.61 2830.32 1718.88 2832.26 1774.63 2831.82C1809.58 2831.54 1850.51 2827.57 1884.8 2833.71C1859.71 2834.74 1834.62 2835.68 1809.53 2836.44L1809.08 2838.42C1818.62 2846.55 1826.25 2853.33 1831.98 2858.75C1837.71 2864.17 1847.71 2869.14 1861.97 2873.66L1856.5 2877.98C1826.74 2880.86 1810.94 2885.66 1809.08 2892.38C1806.51 2901.69 1865.11 2899.94 1874.05 2899.62C1864.83 2899.96 1802.26 2902.03 1790.22 2896.7C1777.21 2890.94 1803.22 2886.62 1796.28 2879.42C1789.33 2872.22 1751.38 2875.1 1709.62 2875.1C1681.78 2875.1 1708.18 2870.37 1788.82 2860.91L1744.18 2847.74L1613.79 2839.42Z" />
				<path id="&lt;Compound Path&gt;" fill-rule="evenodd" class="shp22" d="M998.26 2347.34C1030.93 2348.37 1063.61 2349.38 1096.28 2350.43C1168.97 2352.77 1241.63 2356.2 1314.12 2362.15C1337.92 2364.1 1361.66 2364.53 1385.47 2366.14C1398.19 2366.99 1416.36 2367.77 1429.84 2374.1C1378.3 2393.64 1319.06 2383.07 1266.1 2395.53C1103.37 2433.81 393.78 2451.77 1055.86 2456.85C1112.25 2479.45 1381.49 2450.59 1441.51 2454.3C1509.89 2458.53 1577.96 2464.91 1646.25 2470.24C1922.18 2491.78 2198.33 2495.09 2474.89 2489.92C2613.17 2487.34 2751.69 2485.68 2889.77 2494.85C2936 2497.92 2982.18 2502.47 3028.27 2507.1C3052.24 2509.51 2894.87 2510.78 2863.87 2532.38C2908.13 2551.1 3001.43 2564.37 2944.54 2563C2879.92 2561.45 2816.2 2556.62 2751.6 2561.24C2594.15 2572.48 2436.59 2569.9 2278.92 2567.09C2116.19 2564.2 1921.26 2540.58 1758.6 2545.34C1595.18 2550.11 1256.79 2527.7 1093.3 2529.5C1014.41 2530.37 1359.3 2589.59 1280.4 2588.54C1246.46 2588.08 995.95 2585.59 962.04 2584.74C926.43 2578.52 890.82 2572.24 855.23 2565.96C839.78 2563.24 829.07 2583.85 844.09 2592.38C875.46 2610.17 911.2 2612.45 946.52 2613.28C951.26 2613.39 955.99 2613.56 960.73 2613.7C1029.25 2625.64 1087.98 2677.15 1156.66 2688.14C1347.91 2718.72 1549.92 2703.02 1743.22 2715.77C1840.91 2722.21 1954.59 2709.03 2052.42 2712.38C2094.27 2713.81 2120.18 2733.03 2162.04 2731.69C2183.06 2731.02 2212.9 2727.85 2235.9 2735.14C2212.97 2744.83 2187.48 2748.18 2162.68 2750.41C2124.84 2753.81 2086.82 2754.62 2048.85 2754.72C1965.87 2754.94 1883.14 2752.72 1800.18 2755.8C1649.7 2761.37 1471.97 2726.05 1323.59 2758.46C1312.83 2760.81 1374.46 2769.81 1381.84 2777.18L1081.29 2777.04C1100.82 2774.25 1117.69 2769.98 1131.89 2764.22C1146.1 2758.46 1171.91 2755.58 1209.31 2755.58L1171.1 2739.69C1068.22 2746.48 542.46 2772.35 502.99 2767.1C467.54 2762.38 123.16 2771.18 -0.38 2774.52L-0.38 2347.34L998.26 2347.34ZM1336.66 2512.27C1415.4 2515.04 1494.28 2513.94 1572.82 2520.91C1591.38 2522.55 1698.98 2508.94 1680.82 2505.61C1528.12 2477.66 1290.28 2497.58 1211.55 2494.81C1192.92 2494.16 1318.12 2511.62 1336.66 2512.27ZM379.06 2532.43C480.42 2531 581.63 2521.69 683.04 2524.12C712.36 2524.83 741.45 2526.64 770.46 2529.53C715.86 2532.34 661.27 2535.06 606.58 2535.21C587.96 2535.25 587.98 2564.16 606.58 2564.11C666.95 2563.95 727.2 2560.64 787.47 2557.56C816.49 2556.08 845.69 2553.88 874.75 2554.09C901.65 2554.29 927.52 2551 954.59 2550.63C1027.06 2549.66 1042.37 2526.25 1001.37 2519.42C300.52 2402.68 865.84 2512.96 847.05 2510.62C797.8 2504.49 749.44 2497.59 699.78 2495.73C592.81 2491.73 485.98 2502.02 379.06 2503.53C360.45 2503.79 360.46 2532.69 379.06 2532.43Z" />
				<path id="&lt;Path&gt;" class="shp23" d="M3115.06 2363.85C3070.43 2358.71 3025.92 2365.96 2981.26 2366.66C2930.54 2367.45 2879.8 2366.55 2829.06 2367.61C2729.93 2369.68 2633.85 2359.44 2534.74 2362.46C2354.2 2367.94 2171.55 2378.08 1991.5 2363.76C1930.64 2358.92 1869.86 2353.28 1809.11 2347.34L3436.9 2347.34L3436.9 2843.84L2622.3 2840.85L2118.48 2827.58L2050.36 2812.58C2024.9 2816.96 2004.24 2804.28 1978.84 2808.96C1923.11 2794.8 1863.73 2798.54 1804.94 2797.64C1747.85 2796.77 1690.21 2799.52 1633.37 2805.07C1585.47 2809.75 1541.82 2804.6 1493.62 2804.54C1462.26 2804.5 1419.52 2814.48 1389.04 2800.59C1531.97 2775.78 1679.69 2789.57 1823.96 2783.65C1907.3 2780.23 1990.7 2784.6 2074.07 2783.42C2137.2 2782.53 2218.52 2785.84 2272.76 2747.9C2279.92 2742.89 2283.13 2731.85 2275.68 2725.2C2250.65 2702.83 2252.66 2687.65 2220.82 2687.9C2175.11 2688.25 2095.15 2684.01 2049.41 2682.46C1848.26 2675.64 1643.22 2682.99 1443.33 2658.8C1345.78 2647 1248.6 2632.58 1151.62 2616.85C1215 2616.3 1278.37 2614.78 1341.75 2614.54C1509.93 2613.9 1678.3 2603.85 1846.42 2599.39C2013.45 2594.96 2180.23 2594.44 2347.28 2597.46C2428.63 2598.94 2510.03 2599.54 2591.38 2597.6C2663.79 2595.86 2736.3 2587.44 2808.64 2587.22C2868.58 2587.04 2928.36 2593.39 2988.33 2592.05C3040.99 2590.87 3097.68 2585.06 3142.52 2554.94C3148.09 2551.19 3150.61 2545.27 3149.16 2538.61C3140.25 2497.76 3090.7 2486.74 3055.47 2481.53C3006.38 2474.27 2957.57 2456.78 2908.13 2453.18C2626.17 2432.61 2341.02 2468.89 2058.65 2461.72C1913.98 2458.04 1769.35 2451.41 1625.1 2439.65C1562.72 2434.56 1500.54 2429.12 1438.08 2425.18C1412.81 2423.59 1334.67 2426.27 1309.3 2422.94C1344.45 2418.87 1430.52 2404.32 1466.26 2401.34C1546.72 2394.62 1657.44 2390.35 1653.46 2384.06C1641.72 2365.49 1584.14 2354.28 1520.95 2347.34L1522.84 2347.34C1525.95 2347.64 1529.06 2347.92 1532.17 2348.23C1710.69 2365.94 1876.26 2405.06 2055.28 2417.18C2232.63 2429.18 2422.14 2410.09 2599.69 2403.85C2688.9 2400.71 2778.1 2397.1 2867.36 2395.84C2910.24 2395.24 2953.32 2396.96 2996.14 2395.07C3035.79 2393.32 3075.42 2388.19 3115.06 2392.75C3133.54 2394.88 3133.33 2365.95 3115.06 2363.85Z" />
			</g>
		</g>
	</g>
	<g id="10 copy">
		<g id="&lt;Group&gt;">
			<path id="&lt;Path&gt;" class="shp24" d="M1561.88 730.31C1561.39 730.33 1561 730.34 1560.71 730.35C1561 730.34 1561.39 730.33 1561.88 730.31Z" />
			<path id="&lt;Path&gt;" class="shp25" d="M-0.97 786.09L813.63 789.08L1317.45 802.35L1385.57 817.35C1419.45 811.52 1453.29 805.5 1487.07 799.09C1489.14 799 1491.22 798.91 1493.29 798.81C1537.72 796.62 1582.05 794.83 1626.4 793.49L1626.85 791.51C1617.31 783.38 1609.68 776.6 1603.95 771.18C1598.22 765.76 1588.22 760.79 1573.96 756.27L1579.43 751.95C1609.19 749.07 1624.99 744.27 1626.85 737.55C1629.42 728.24 1570.82 729.99 1561.88 730.31C1571.1 729.97 1633.67 727.9 1645.71 733.23C1658.72 738.99 1632.71 743.31 1639.65 750.51C1646.6 757.71 1684.55 754.83 1726.31 754.83C1754.15 754.83 1790.63 757.23 1835.75 762.03L1691.75 782.19L1822.14 790.51L1887.95 789.08C1943.68 800.63 1999.35 812.74 2055.84 815.07L2051.79 822.51L2354.64 852.89C2335.11 855.68 2318.24 859.95 2304.04 865.71C2289.83 871.47 2264.02 874.35 2226.62 874.35L2264.83 890.24C2367.71 883.45 2893.47 857.58 2932.94 862.83C2968.39 867.55 3312.77 858.75 3436.31 855.41L3436.31 1282.59L-0.97 1282.59L-0.97 786.09Z" />
		</g>
		<g id="10 copy">
			<g id="&lt;Group&gt;">
				<path id="&lt;Path&gt;" class="shp26" d="M1561.88 730.31C1561.39 730.33 1561 730.34 1560.71 730.35C1561 730.34 1561.39 730.33 1561.88 730.31Z" />
				<path id="&lt;Path&gt;" class="shp27" d="M1822.14 790.51L1869.65 789.48C1853.66 790.85 1837.7 792.43 1821.79 794.03C1766.32 799.61 1717.05 797.67 1661.3 798.11C1626.35 798.39 1585.42 802.36 1551.13 796.22C1576.22 795.19 1601.31 794.25 1626.4 793.49L1626.85 791.51C1617.31 783.38 1609.68 776.6 1603.95 771.18C1598.22 765.76 1588.22 760.79 1573.96 756.27L1579.43 751.95C1609.19 749.07 1624.99 744.27 1626.85 737.55C1629.42 728.24 1570.82 729.99 1561.88 730.31C1571.1 729.97 1633.67 727.9 1645.71 733.23C1658.72 738.99 1632.71 743.31 1639.65 750.51C1646.6 757.71 1684.55 754.83 1726.31 754.83C1754.15 754.83 1727.75 759.56 1647.11 769.02L1691.75 782.19L1822.14 790.51Z" />
				<path id="&lt;Compound Path&gt;" fill-rule="evenodd" class="shp28" d="M2437.67 1282.59C2405 1281.56 2372.32 1280.55 2339.65 1279.5C2266.96 1277.16 2194.3 1273.73 2121.81 1267.78C2098.01 1265.83 2074.27 1265.4 2050.46 1263.79C2037.74 1262.94 2019.57 1262.16 2006.09 1255.83C2057.63 1236.29 2116.87 1246.86 2169.83 1234.4C2332.56 1196.12 3042.15 1178.16 2380.07 1173.08C2323.68 1150.48 2054.44 1179.34 1994.42 1175.63C1926.04 1171.4 1857.97 1165.02 1789.68 1159.69C1513.75 1138.15 1237.6 1134.84 961.04 1140.01C822.76 1142.59 684.24 1144.25 546.16 1135.08C499.93 1132.01 453.75 1127.46 407.66 1122.83C383.69 1120.42 541.06 1119.15 572.06 1097.55C527.8 1078.83 434.5 1065.56 491.39 1066.93C556.01 1068.48 619.73 1073.31 684.33 1068.69C841.78 1057.45 999.34 1060.03 1157.01 1062.84C1319.74 1065.73 1514.67 1089.35 1677.33 1084.59C1840.75 1079.82 2179.14 1102.23 2342.63 1100.43C2421.52 1099.56 2076.63 1040.34 2155.53 1041.39C2189.47 1041.85 2439.98 1044.34 2473.89 1045.19C2509.5 1051.41 2545.11 1057.69 2580.7 1063.97C2596.15 1066.69 2606.86 1046.08 2591.84 1037.55C2560.47 1019.76 2524.73 1017.48 2489.41 1016.65C2484.67 1016.54 2479.94 1016.37 2475.2 1016.23C2406.68 1004.29 2347.95 952.78 2279.27 941.79C2088.02 911.21 1886.01 926.91 1692.71 914.16C1595.02 907.72 1481.34 920.9 1383.51 917.55C1341.66 916.12 1315.75 896.9 1273.89 898.24C1252.87 898.91 1223.03 902.08 1200.03 894.79C1222.96 885.1 1248.45 881.75 1273.25 879.52C1311.09 876.12 1349.11 875.31 1387.08 875.21C1470.06 874.99 1552.79 877.21 1635.75 874.13C1786.23 868.56 1963.96 903.88 2112.34 871.47C2123.1 869.12 2061.47 860.12 2054.09 852.75L2354.64 852.89C2335.11 855.68 2318.24 859.95 2304.04 865.71C2289.83 871.47 2264.02 874.35 2226.62 874.35L2264.83 890.24C2367.71 883.45 2893.47 857.58 2932.94 862.83C2968.39 867.55 3312.77 858.75 3436.31 855.41L3436.31 1282.59L2437.67 1282.59ZM2099.27 1117.66C2020.53 1114.89 1941.65 1115.99 1863.11 1109.02C1844.55 1107.38 1736.95 1120.99 1755.11 1124.32C1907.81 1152.27 2145.65 1132.35 2224.38 1135.12C2243.01 1135.77 2117.81 1118.31 2099.27 1117.66ZM3056.87 1097.5C2955.51 1098.93 2854.3 1108.24 2752.89 1105.81C2723.57 1105.1 2694.48 1103.29 2665.47 1100.4C2720.07 1097.59 2774.66 1094.87 2829.35 1094.72C2847.97 1094.68 2847.95 1065.77 2829.35 1065.82C2768.98 1065.98 2708.73 1069.29 2648.46 1072.37C2619.44 1073.85 2590.24 1076.05 2561.18 1075.84C2534.28 1075.64 2508.41 1078.93 2481.34 1079.3C2408.87 1080.27 2393.56 1103.68 2434.56 1110.51C3135.41 1227.25 2570.09 1116.97 2588.88 1119.31C2638.13 1125.44 2686.49 1132.34 2736.15 1134.2C2843.12 1138.2 2949.95 1127.91 3056.87 1126.4C3075.48 1126.14 3075.47 1097.24 3056.87 1097.5Z" />
				<path id="&lt;Path&gt;" class="shp29" d="M320.87 1266.08C365.5 1271.22 410.01 1263.97 454.67 1263.27C505.39 1262.48 556.13 1263.38 606.87 1262.32C706 1260.25 802.08 1270.49 901.19 1267.47C1081.73 1261.99 1264.38 1251.85 1444.43 1266.17C1505.29 1271.01 1566.07 1276.65 1626.82 1282.59L-0.97 1282.59L-0.97 786.09L813.63 789.08L1317.45 802.35L1385.57 817.35C1411.03 812.97 1431.69 825.65 1457.09 820.97C1512.82 835.13 1572.2 831.39 1630.99 832.29C1688.08 833.16 1745.72 830.41 1802.56 824.86C1850.46 820.18 1894.11 825.33 1942.31 825.39C1973.67 825.43 2016.41 815.45 2046.89 829.34C1903.96 854.15 1756.24 840.36 1611.97 846.28C1528.63 849.7 1445.23 845.33 1361.86 846.51C1298.73 847.4 1217.41 844.09 1163.17 882.03C1156.01 887.04 1152.8 898.08 1160.25 904.73C1185.28 927.1 1183.27 942.28 1215.11 942.03C1260.82 941.68 1340.78 945.92 1386.52 947.47C1587.67 954.29 1792.71 946.94 1992.6 971.13C2090.15 982.93 2187.33 997.35 2284.31 1013.08C2220.93 1013.63 2157.56 1015.15 2094.18 1015.39C1926 1016.03 1757.63 1026.08 1589.51 1030.54C1422.48 1034.97 1255.7 1035.49 1088.65 1032.47C1007.3 1030.99 925.9 1030.39 844.55 1032.33C772.14 1034.07 699.63 1042.49 627.29 1042.71C567.35 1042.89 507.57 1036.54 447.6 1037.88C394.94 1039.06 338.25 1044.87 293.41 1074.99C287.84 1078.74 285.32 1084.66 286.77 1091.32C295.68 1132.17 345.23 1143.19 380.46 1148.4C429.55 1155.66 478.36 1173.15 527.8 1176.75C809.76 1197.32 1094.91 1161.04 1377.28 1168.21C1521.95 1171.89 1666.58 1178.52 1810.83 1190.28C1873.21 1195.37 1935.39 1200.81 1997.85 1204.75C2023.12 1206.34 2101.26 1203.66 2126.63 1206.99C2091.48 1211.06 2005.41 1225.61 1969.67 1228.59C1889.21 1235.31 1778.49 1239.58 1782.47 1245.87C1794.21 1264.44 1851.79 1275.65 1914.98 1282.59L1913.09 1282.59C1909.98 1282.29 1906.87 1282.01 1903.76 1281.7C1725.24 1263.99 1559.67 1224.87 1380.65 1212.75C1203.3 1200.75 1013.79 1219.84 836.24 1226.08C747.03 1229.22 657.83 1232.83 568.57 1234.09C525.69 1234.69 482.61 1232.97 439.79 1234.86C400.14 1236.61 360.51 1241.74 320.87 1237.18C302.39 1235.05 302.6 1263.98 320.87 1266.08Z" />
			</g>
		</g>
	</g>
</svg>