<svg version="1.2" baseProfile="tiny-ps" xmlns="http://www.w3.org/2000/svg" viewBox="0 0 3435 2244" width="3435" height="2244">
	<title>mountain_water_blue-svg-svg</title>
	<defs>
		<linearGradient id="grd1" gradientUnits="userSpaceOnUse"  x1="1537.788" y1="447.156" x2="1558.733" y2="748.168">
			<stop offset="0" stop-color="#d1f2fa"  />
			<stop offset="1" stop-color="#0caef9"  />
		</linearGradient>
		<linearGradient id="grd2" gradientUnits="userSpaceOnUse"  x1="-54.414" y1="560.226" x2="69.04" y2="2334.508">
			<stop offset="0" stop-color="#d1f2fa"  />
			<stop offset="1" stop-color="#28aeed"  />
		</linearGradient>
		<linearGradient id="grd3" gradientUnits="userSpaceOnUse"  x1="1553.595" y1="409.215" x2="1556.549" y2="642.078">
			<stop offset="0" stop-color="#d1f2fa"  />
			<stop offset="0.98" stop-color="#36a8dc"  />
			<stop offset="1" stop-color="#17719b"  />
		</linearGradient>
		<linearGradient id="grd4" gradientUnits="userSpaceOnUse"  x1="1543.91" y1="448.164" x2="1559.204" y2="1653.832">
			<stop offset="0" stop-color="#d1f2fa"  />
			<stop offset="1" stop-color="#138bc3"  />
		</linearGradient>
		<linearGradient id="grd5" gradientUnits="userSpaceOnUse"  x1="1919.756" y1="1285.593" x2="1919.756" y2="855.753">
			<stop offset="0" stop-color="#d1f2fa"  />
			<stop offset="1" stop-color="#1cb2f7"  />
		</linearGradient>
		<linearGradient id="grd6" gradientUnits="userSpaceOnUse"  x1="-14.838" y1="429.11" x2="2.442" y2="1791.35">
			<stop offset="0" stop-color="#d1f2fa"  />
			<stop offset="1" stop-color="#1590b9"  />
		</linearGradient>
		<linearGradient id="grd7" gradientUnits="userSpaceOnUse"  x1="1539.308" y1="1530.315" x2="1560.253" y2="1831.327">
			<stop offset="0" stop-color="#d1f2fa"  />
			<stop offset="1" stop-color="#0caef9"  />
		</linearGradient>
		<linearGradient id="grd8" gradientUnits="userSpaceOnUse"  x1="-52.894" y1="1091.824" x2="70.56" y2="2866.106">
			<stop offset="0" stop-color="#d1f2fa"  />
			<stop offset="1" stop-color="#28aeed"  />
		</linearGradient>
		<linearGradient id="grd9" gradientUnits="userSpaceOnUse"  x1="1555.115" y1="1492.374" x2="1558.069" y2="1725.237">
			<stop offset="0" stop-color="#d1f2fa"  />
			<stop offset="0.98" stop-color="#36a8dc"  />
			<stop offset="1" stop-color="#17719b"  />
		</linearGradient>
		<linearGradient id="grd10" gradientUnits="userSpaceOnUse"  x1="1545.43" y1="1462.722" x2="1560.724" y2="2668.39">
			<stop offset="0" stop-color="#d1f2fa"  />
			<stop offset="1" stop-color="#138bc3"  />
		</linearGradient>
		<linearGradient id="grd11" gradientUnits="userSpaceOnUse"  x1="1921.276" y1="1694.072" x2="1921.276" y2="1264.232">
			<stop offset="0" stop-color="#d1f2fa"  />
			<stop offset="1" stop-color="#1cb2f7"  />
		</linearGradient>
		<linearGradient id="grd12" gradientUnits="userSpaceOnUse"  x1="-13.318" y1="904.249" x2="3.962" y2="2266.489">
			<stop offset="0" stop-color="#d1f2fa"  />
			<stop offset="1" stop-color="#1590b9"  />
		</linearGradient>
		<linearGradient id="grd13" gradientUnits="userSpaceOnUse"  x1="1537.308" y1="2314.315" x2="1558.253" y2="2615.327">
			<stop offset="0" stop-color="#d1f2fa"  />
			<stop offset="1" stop-color="#0caef9"  />
		</linearGradient>
		<linearGradient id="grd14" gradientUnits="userSpaceOnUse"  x1="-54.894" y1="1875.824" x2="68.56" y2="3650.106">
			<stop offset="0" stop-color="#d1f2fa"  />
			<stop offset="1" stop-color="#28aeed"  />
		</linearGradient>
		<linearGradient id="grd15" gradientUnits="userSpaceOnUse"  x1="1553.115" y1="2276.374" x2="1556.069" y2="2509.237">
			<stop offset="0" stop-color="#d1f2fa"  />
			<stop offset="0.98" stop-color="#36a8dc"  />
			<stop offset="1" stop-color="#17719b"  />
		</linearGradient>
		<linearGradient id="grd16" gradientUnits="userSpaceOnUse"  x1="1543.43" y1="2246.722" x2="1558.724" y2="3452.39">
			<stop offset="0" stop-color="#d1f2fa"  />
			<stop offset="1" stop-color="#138bc3"  />
		</linearGradient>
		<linearGradient id="grd17" gradientUnits="userSpaceOnUse"  x1="1919.276" y1="2478.072" x2="1919.276" y2="2048.232">
			<stop offset="0" stop-color="#d1f2fa"  />
			<stop offset="1" stop-color="#1cb2f7"  />
		</linearGradient>
		<linearGradient id="grd18" gradientUnits="userSpaceOnUse"  x1="-15.318" y1="1688.249" x2="1.962" y2="3050.489">
			<stop offset="0" stop-color="#d1f2fa"  />
			<stop offset="1" stop-color="#1590b9"  />
		</linearGradient>
		<linearGradient id="grd19" gradientUnits="userSpaceOnUse"  x1="1852.508" y1="1938.086" x2="1873.453" y2="2239.098">
			<stop offset="0" stop-color="#d1f2fa"  />
			<stop offset="1" stop-color="#0caef9"  />
		</linearGradient>
		<linearGradient id="grd20" gradientUnits="userSpaceOnUse"  x1="-52.444" y1="1499.595" x2="71.01" y2="3273.877">
			<stop offset="0" stop-color="#d1f2fa"  />
			<stop offset="1" stop-color="#28aeed"  />
		</linearGradient>
		<linearGradient id="grd21" gradientUnits="userSpaceOnUse"  x1="1868.315" y1="1900.145" x2="1871.269" y2="2133.008">
			<stop offset="0" stop-color="#d1f2fa"  />
			<stop offset="0.98" stop-color="#36a8dc"  />
			<stop offset="1" stop-color="#17719b"  />
		</linearGradient>
		<linearGradient id="grd22" gradientUnits="userSpaceOnUse"  x1="1560.44" y1="1870.493" x2="1575.734" y2="3076.161">
			<stop offset="0" stop-color="#d1f2fa"  />
			<stop offset="1" stop-color="#138bc3"  />
		</linearGradient>
		<linearGradient id="grd23" gradientUnits="userSpaceOnUse"  x1="1515.549" y1="2101.843" x2="1515.549" y2="1672.003">
			<stop offset="0" stop-color="#d1f2fa"  />
			<stop offset="1" stop-color="#1cb2f7"  />
		</linearGradient>
		<linearGradient id="grd24" gradientUnits="userSpaceOnUse"  x1="1139.132" y1="1312.02" x2="1156.412" y2="2674.26">
			<stop offset="0" stop-color="#d1f2fa"  />
			<stop offset="1" stop-color="#1590b9"  />
		</linearGradient>
		<linearGradient id="grd25" gradientUnits="userSpaceOnUse"  x1="1850.508" y1="2613.086" x2="1871.453" y2="2914.098">
			<stop offset="0" stop-color="#d1f2fa"  />
			<stop offset="1" stop-color="#0caef9"  />
		</linearGradient>
		<linearGradient id="grd26" gradientUnits="userSpaceOnUse"  x1="-54.444" y1="2174.595" x2="69.01" y2="3948.877">
			<stop offset="0" stop-color="#d1f2fa"  />
			<stop offset="1" stop-color="#28aeed"  />
		</linearGradient>
		<linearGradient id="grd27" gradientUnits="userSpaceOnUse"  x1="1866.315" y1="2575.145" x2="1869.269" y2="2808.008">
			<stop offset="0" stop-color="#d1f2fa"  />
			<stop offset="0.98" stop-color="#36a8dc"  />
			<stop offset="1" stop-color="#17719b"  />
		</linearGradient>
		<linearGradient id="grd28" gradientUnits="userSpaceOnUse"  x1="1558.44" y1="2545.493" x2="1573.734" y2="3751.161">
			<stop offset="0" stop-color="#d1f2fa"  />
			<stop offset="1" stop-color="#138bc3"  />
		</linearGradient>
		<linearGradient id="grd29" gradientUnits="userSpaceOnUse"  x1="1513.549" y1="2776.843" x2="1513.549" y2="2347.003">
			<stop offset="0" stop-color="#d1f2fa"  />
			<stop offset="1" stop-color="#1cb2f7"  />
		</linearGradient>
		<linearGradient id="grd30" gradientUnits="userSpaceOnUse"  x1="1137.132" y1="1987.02" x2="1154.412" y2="3349.26">
			<stop offset="0" stop-color="#d1f2fa"  />
			<stop offset="1" stop-color="#1590b9"  />
		</linearGradient>
	</defs>
	<style>
		tspan { white-space:pre }
		.shp0 { fill: url(#grd1) } 
		.shp1 { fill: url(#grd2) } 
		.shp2 { fill: url(#grd3) } 
		.shp3 { fill: url(#grd4) } 
		.shp4 { fill: url(#grd5) } 
		.shp5 { fill: url(#grd6) } 
		.shp6 { fill: url(#grd7) } 
		.shp7 { fill: url(#grd8) } 
		.shp8 { fill: url(#grd9) } 
		.shp9 { fill: url(#grd10) } 
		.shp10 { fill: url(#grd11) } 
		.shp11 { fill: url(#grd12) } 
		.shp12 { fill: url(#grd13) } 
		.shp13 { fill: url(#grd14) } 
		.shp14 { fill: url(#grd15) } 
		.shp15 { fill: url(#grd16) } 
		.shp16 { fill: url(#grd17) } 
		.shp17 { fill: url(#grd18) } 
		.shp18 { fill: url(#grd19) } 
		.shp19 { fill: url(#grd20) } 
		.shp20 { fill: url(#grd21) } 
		.shp21 { fill: url(#grd22) } 
		.shp22 { fill: url(#grd23) } 
		.shp23 { fill: url(#grd24) } 
		.shp24 { fill: url(#grd25) } 
		.shp25 { fill: url(#grd26) } 
		.shp26 { fill: url(#grd27) } 
		.shp27 { fill: url(#grd28) } 
		.shp28 { fill: url(#grd29) } 
		.shp29 { fill: url(#grd30) } 
	</style>
	<g id="10 copy">
		<g id="&lt;Group&gt;">
			<path id="&lt;Path&gt;" class="shp0" d="M1560.88 733.31C1560.39 733.33 1560 733.34 1559.71 733.35C1560 733.34 1560.39 733.33 1560.88 733.31Z" />
			<path id="&lt;Path&gt;" class="shp1" d="M-1.97 789.09L812.63 792.08L1316.45 805.35L1384.57 820.35C1418.45 814.52 1452.29 808.5 1486.07 802.09C1488.14 802 1490.22 801.91 1492.29 801.81C1536.72 799.62 1581.05 797.83 1625.4 796.49L1625.85 794.51C1616.31 786.38 1608.68 779.6 1602.95 774.18C1597.22 768.76 1587.22 763.79 1572.96 759.27L1578.43 754.95C1608.19 752.07 1623.99 747.27 1625.85 740.55C1628.42 731.24 1569.82 732.99 1560.88 733.31C1570.1 732.97 1632.67 730.9 1644.71 736.23C1657.72 741.99 1631.71 746.31 1638.65 753.51C1645.6 760.71 1683.55 757.83 1725.31 757.83C1753.15 757.83 1789.63 760.23 1834.75 765.03L1690.75 785.19L1821.14 793.51L1886.95 792.08C1942.68 803.63 1998.35 815.74 2054.84 818.07L2050.79 825.51L2353.64 855.89C2334.11 858.68 2317.24 862.95 2303.04 868.71C2288.83 874.47 2263.02 877.35 2225.62 877.35L2263.83 893.24C2366.71 886.45 2892.47 860.58 2931.94 865.83C2967.39 870.55 3311.77 861.75 3435.31 858.41L3435.31 1285.59L-1.97 1285.59L-1.97 789.09Z" />
		</g>
		<g id="10 copy">
			<g id="&lt;Group&gt;">
				<path id="&lt;Path&gt;" class="shp2" d="M1560.88 733.31C1560.39 733.33 1560 733.34 1559.71 733.35C1560 733.34 1560.39 733.33 1560.88 733.31Z" />
				<path id="&lt;Path&gt;" class="shp3" d="M1821.14 793.51L1868.65 792.48C1852.66 793.85 1836.7 795.43 1820.79 797.03C1765.32 802.61 1716.05 800.67 1660.3 801.11C1625.35 801.39 1584.42 805.36 1550.13 799.22C1575.22 798.19 1600.31 797.25 1625.4 796.49L1625.85 794.51C1616.31 786.38 1608.68 779.6 1602.95 774.18C1597.22 768.76 1587.22 763.79 1572.96 759.27L1578.43 754.95C1608.19 752.07 1623.99 747.27 1625.85 740.55C1628.42 731.24 1569.82 732.99 1560.88 733.31C1570.1 732.97 1632.67 730.9 1644.71 736.23C1657.72 741.99 1631.71 746.31 1638.65 753.51C1645.6 760.71 1683.55 757.83 1725.31 757.83C1753.15 757.83 1726.75 762.56 1646.11 772.02L1690.75 785.19L1821.14 793.51Z" />
				<path id="&lt;Compound Path&gt;" fill-rule="evenodd" class="shp4" d="M2436.67 1285.59C2404 1284.56 2371.32 1283.55 2338.65 1282.5C2265.96 1280.16 2193.3 1276.73 2120.81 1270.78C2097.01 1268.83 2073.27 1268.4 2049.46 1266.79C2036.74 1265.94 2018.57 1265.16 2005.09 1258.83C2056.63 1239.29 2115.87 1249.86 2168.83 1237.4C2331.56 1199.12 3041.15 1181.16 2379.07 1176.08C2322.68 1153.48 2053.44 1182.34 1993.42 1178.63C1925.04 1174.4 1856.97 1168.02 1788.68 1162.69C1512.75 1141.15 1236.6 1137.84 960.04 1143.01C821.76 1145.59 683.24 1147.25 545.16 1138.08C498.93 1135.01 452.75 1130.46 406.66 1125.83C382.69 1123.42 540.06 1122.15 571.06 1100.55C526.8 1081.83 433.5 1068.56 490.39 1069.93C555.01 1071.48 618.73 1076.31 683.33 1071.69C840.78 1060.45 998.34 1063.03 1156.01 1065.84C1318.74 1068.73 1513.67 1092.35 1676.33 1087.59C1839.75 1082.82 2178.14 1105.23 2341.63 1103.43C2420.52 1102.56 2075.63 1043.34 2154.53 1044.39C2188.47 1044.85 2438.98 1047.34 2472.89 1048.19C2508.5 1054.41 2544.11 1060.69 2579.7 1066.97C2595.15 1069.69 2605.86 1049.08 2590.84 1040.55C2559.47 1022.76 2523.73 1020.48 2488.41 1019.65C2483.67 1019.54 2478.94 1019.37 2474.2 1019.23C2405.68 1007.29 2346.95 955.78 2278.27 944.79C2087.02 914.21 1885.01 929.91 1691.71 917.16C1594.02 910.72 1480.34 923.9 1382.51 920.55C1340.66 919.12 1314.75 899.9 1272.89 901.24C1251.87 901.91 1222.03 905.08 1199.03 897.79C1221.96 888.1 1247.45 884.75 1272.25 882.52C1310.09 879.12 1348.11 878.31 1386.08 878.21C1469.06 877.99 1551.79 880.21 1634.75 877.13C1785.23 871.56 1962.96 906.88 2111.34 874.47C2122.1 872.12 2060.47 863.12 2053.09 855.75L2353.64 855.89C2334.11 858.68 2317.24 862.95 2303.04 868.71C2288.83 874.47 2263.02 877.35 2225.62 877.35L2263.83 893.24C2366.71 886.45 2892.47 860.58 2931.94 865.83C2967.39 870.55 3311.77 861.75 3435.31 858.41L3435.31 1285.59L2436.67 1285.59ZM2098.27 1120.66C2019.53 1117.89 1940.65 1118.99 1862.11 1112.02C1843.55 1110.38 1735.95 1123.99 1754.11 1127.32C1906.81 1155.27 2144.65 1135.35 2223.38 1138.12C2242.01 1138.77 2116.81 1121.31 2098.27 1120.66ZM3055.87 1100.5C2954.51 1101.93 2853.3 1111.24 2751.89 1108.81C2722.57 1108.1 2693.48 1106.29 2664.47 1103.4C2719.07 1100.59 2773.66 1097.87 2828.35 1097.72C2846.97 1097.68 2846.95 1068.77 2828.35 1068.82C2767.98 1068.98 2707.73 1072.29 2647.46 1075.37C2618.44 1076.85 2589.24 1079.05 2560.18 1078.84C2533.28 1078.64 2507.41 1081.93 2480.34 1082.3C2407.87 1083.27 2392.56 1106.68 2433.56 1113.51C3134.41 1230.25 2569.09 1119.97 2587.88 1122.31C2637.13 1128.44 2685.49 1135.34 2735.15 1137.2C2842.12 1141.2 2948.95 1130.91 3055.87 1129.4C3074.48 1129.14 3074.47 1100.24 3055.87 1100.5Z" />
				<path id="&lt;Path&gt;" class="shp5" d="M319.87 1269.08C364.5 1274.22 409.01 1266.97 453.67 1266.27C504.39 1265.48 555.13 1266.38 605.87 1265.32C705 1263.25 801.08 1273.49 900.19 1270.47C1080.73 1264.99 1263.38 1254.85 1443.43 1269.17C1504.29 1274.01 1565.07 1279.65 1625.82 1285.59L-1.97 1285.59L-1.97 789.09L812.63 792.08L1316.45 805.35L1384.57 820.35C1410.03 815.97 1430.69 828.65 1456.09 823.97C1511.82 838.13 1571.2 834.39 1629.99 835.29C1687.08 836.16 1744.72 833.41 1801.56 827.86C1849.46 823.18 1893.11 828.33 1941.31 828.39C1972.67 828.43 2015.41 818.45 2045.89 832.34C1902.96 857.15 1755.24 843.36 1610.97 849.28C1527.63 852.7 1444.23 848.33 1360.86 849.51C1297.73 850.4 1216.41 847.09 1162.17 885.03C1155.01 890.04 1151.8 901.08 1159.25 907.73C1184.28 930.1 1182.27 945.28 1214.11 945.03C1259.82 944.68 1339.78 948.92 1385.52 950.47C1586.67 957.29 1791.71 949.94 1991.6 974.13C2089.15 985.93 2186.33 1000.35 2283.31 1016.08C2219.93 1016.63 2156.56 1018.15 2093.18 1018.39C1925 1019.03 1756.63 1029.08 1588.51 1033.54C1421.48 1037.97 1254.7 1038.49 1087.65 1035.47C1006.3 1033.99 924.9 1033.39 843.55 1035.33C771.14 1037.07 698.63 1045.49 626.29 1045.71C566.35 1045.89 506.57 1039.54 446.6 1040.88C393.94 1042.06 337.25 1047.87 292.41 1077.99C286.84 1081.74 284.32 1087.66 285.77 1094.32C294.68 1135.17 344.23 1146.19 379.46 1151.4C428.55 1158.66 477.36 1176.15 526.8 1179.75C808.76 1200.32 1093.91 1164.04 1376.28 1171.21C1520.95 1174.89 1665.58 1181.52 1809.83 1193.28C1872.21 1198.37 1934.39 1203.81 1996.85 1207.75C2022.12 1209.34 2100.26 1206.66 2125.63 1209.99C2090.48 1214.06 2004.41 1228.61 1968.67 1231.59C1888.21 1238.31 1777.49 1242.58 1781.47 1248.87C1793.21 1267.44 1850.79 1278.65 1913.98 1285.59L1912.09 1285.59C1908.98 1285.29 1905.87 1285.01 1902.76 1284.7C1724.24 1266.99 1558.67 1227.87 1379.65 1215.75C1202.3 1203.75 1012.79 1222.84 835.24 1229.08C746.03 1232.22 656.83 1235.83 567.57 1237.09C524.69 1237.69 481.61 1235.97 438.79 1237.86C399.14 1239.61 359.51 1244.74 319.87 1240.18C301.39 1238.05 301.6 1266.98 319.87 1269.08Z" />
			</g>
		</g>
	</g>
	<g id="10 copy 3">
		<g id="&lt;Group&gt;">
			<path id="&lt;Path&gt;" class="shp6" d="M1562.4 1816.51C1561.91 1816.49 1561.52 1816.48 1561.23 1816.47C1561.52 1816.48 1561.91 1816.49 1562.4 1816.51Z" />
			<path id="&lt;Path&gt;" class="shp7" d="M-0.45 1760.73L814.15 1757.74L1317.97 1744.47L1386.09 1729.47C1419.97 1735.3 1453.81 1741.32 1487.59 1747.73C1489.66 1747.82 1491.74 1747.91 1493.81 1748.01C1538.24 1750.2 1582.57 1751.99 1626.92 1753.33L1627.37 1755.31C1617.83 1763.44 1610.2 1770.22 1604.47 1775.64C1598.74 1781.06 1588.74 1786.03 1574.48 1790.55L1579.95 1794.87C1609.71 1797.75 1625.51 1802.55 1627.37 1809.27C1629.94 1818.58 1571.34 1816.83 1562.4 1816.51C1571.62 1816.85 1634.19 1818.92 1646.23 1813.59C1659.24 1807.83 1633.23 1803.51 1640.17 1796.31C1647.12 1789.11 1685.07 1791.99 1726.83 1791.99C1754.67 1791.99 1791.15 1789.59 1836.27 1784.79L1692.27 1764.63L1822.66 1756.31L1888.47 1757.74C1944.2 1746.19 1999.87 1734.08 2056.36 1731.75L2052.31 1724.31L2355.16 1693.93C2335.63 1691.14 2318.76 1686.87 2304.56 1681.11C2290.35 1675.35 2264.54 1672.47 2227.14 1672.47L2265.35 1656.58C2368.23 1663.37 2893.99 1689.24 2933.46 1683.99C2968.91 1679.27 3313.29 1688.07 3436.83 1691.41L3436.83 1264.23L-0.45 1264.23L-0.45 1760.73Z" />
		</g>
		<g id="10 copy">
			<g id="&lt;Group&gt;">
				<path id="&lt;Path&gt;" class="shp8" d="M1562.4 1816.51C1561.91 1816.49 1561.52 1816.48 1561.23 1816.47C1561.52 1816.48 1561.91 1816.49 1562.4 1816.51Z" />
				<path id="&lt;Path&gt;" class="shp9" d="M1822.66 1756.31L1870.17 1757.34C1854.18 1755.97 1838.22 1754.39 1822.31 1752.79C1766.84 1747.21 1717.57 1749.15 1661.82 1748.71C1626.87 1748.43 1585.94 1744.46 1551.65 1750.6C1576.74 1751.63 1601.83 1752.57 1626.92 1753.33L1627.37 1755.31C1617.83 1763.44 1610.2 1770.22 1604.47 1775.64C1598.74 1781.06 1588.74 1786.03 1574.48 1790.55L1579.95 1794.87C1609.71 1797.75 1625.51 1802.55 1627.37 1809.27C1629.94 1818.58 1571.34 1816.83 1562.4 1816.51C1571.62 1816.85 1634.19 1818.92 1646.23 1813.59C1659.24 1807.83 1633.23 1803.51 1640.17 1796.31C1647.12 1789.11 1685.07 1791.99 1726.83 1791.99C1754.67 1791.99 1728.27 1787.26 1647.63 1777.8L1692.27 1764.63L1822.66 1756.31Z" />
				<path id="&lt;Compound Path&gt;" fill-rule="evenodd" class="shp10" d="M3436.83 1264.23L3436.83 1691.41C3313.29 1688.07 2968.91 1679.27 2933.46 1683.99C2893.99 1689.24 2368.23 1663.37 2265.35 1656.58L2227.14 1672.47C2264.54 1672.47 2290.35 1675.35 2304.56 1681.11C2318.76 1686.87 2335.63 1691.14 2355.16 1693.93L2054.61 1694.07C2061.99 1686.7 2123.62 1677.7 2112.86 1675.35C1964.48 1642.94 1786.75 1678.26 1636.27 1672.69C1553.31 1669.61 1470.58 1671.83 1387.6 1671.61C1349.63 1671.51 1311.61 1670.7 1273.77 1667.3C1248.97 1665.07 1223.48 1661.72 1200.55 1652.03C1223.55 1644.74 1253.39 1647.91 1274.41 1648.58C1316.27 1649.92 1342.18 1630.7 1384.03 1629.27C1481.86 1625.92 1595.54 1639.1 1693.23 1632.66C1886.53 1619.91 2088.54 1635.61 2279.79 1605.03C2348.47 1594.04 2407.2 1542.53 2475.72 1530.59C2480.46 1530.45 2485.19 1530.28 2489.93 1530.17C2525.25 1529.34 2560.99 1527.06 2592.36 1509.27C2607.38 1500.74 2596.67 1480.13 2581.22 1482.85C2545.63 1489.13 2510.02 1495.41 2474.41 1501.63C2440.5 1502.48 2189.99 1504.97 2156.05 1505.43C2077.15 1506.48 2422.04 1447.26 2343.15 1446.39C2179.66 1444.59 1841.27 1467 1677.85 1462.23C1515.19 1457.47 1320.26 1481.09 1157.53 1483.98C999.86 1486.79 842.3 1489.37 684.85 1478.13C620.25 1473.51 556.53 1478.34 491.91 1479.89C435.02 1481.26 528.32 1467.99 572.58 1449.27C541.58 1427.67 384.21 1426.4 408.18 1423.99C454.27 1419.36 500.45 1414.81 546.68 1411.74C684.76 1402.57 823.28 1404.23 961.56 1406.81C1238.12 1411.98 1514.27 1408.67 1790.2 1387.13C1858.49 1381.8 1926.56 1375.42 1994.94 1371.19C2054.96 1367.48 2324.2 1396.34 2380.59 1373.74C3042.67 1368.66 2333.08 1350.7 2170.35 1312.42C2117.39 1299.96 2058.15 1310.53 2006.61 1290.99C2020.09 1284.66 2038.26 1283.88 2050.98 1283.03C2074.79 1281.42 2098.53 1280.99 2122.33 1279.04C2194.82 1273.09 2267.48 1269.66 2340.17 1267.32C2372.84 1266.27 2405.52 1265.26 2438.19 1264.23L3436.83 1264.23ZM2224.9 1411.7C2146.17 1414.47 1908.33 1394.55 1755.63 1422.5C1737.47 1425.83 1845.07 1439.44 1863.63 1437.8C1942.17 1430.83 2021.05 1431.93 2099.79 1429.16C2118.33 1428.51 2243.53 1411.05 2224.9 1411.7ZM3057.39 1420.42C2950.47 1418.91 2843.64 1408.62 2736.67 1412.62C2687.01 1414.48 2638.65 1421.38 2589.4 1427.51C2570.61 1429.85 3135.93 1319.57 2435.08 1436.31C2394.08 1443.14 2409.39 1466.55 2481.86 1467.52C2508.93 1467.89 2534.8 1471.18 2561.7 1470.98C2590.76 1470.77 2619.96 1472.97 2648.98 1474.45C2709.25 1477.53 2769.5 1480.84 2829.87 1481C2848.47 1481.05 2848.49 1452.14 2829.87 1452.1C2775.18 1451.95 2720.59 1449.23 2665.99 1446.42C2695 1443.53 2724.09 1441.72 2753.41 1441.01C2854.82 1438.58 2956.03 1447.89 3057.39 1449.32C3075.99 1449.58 3076 1420.68 3057.39 1420.42Z" />
				<path id="&lt;Path&gt;" class="shp11" d="M321.39 1280.74C366.02 1275.6 410.53 1282.85 455.19 1283.55C505.91 1284.34 556.65 1283.44 607.39 1284.5C706.52 1286.57 802.6 1276.33 901.71 1279.35C1082.25 1284.83 1264.9 1294.97 1444.95 1280.65C1505.81 1275.81 1566.59 1270.17 1627.34 1264.23L-0.45 1264.23L-0.45 1760.73L814.15 1757.74L1317.97 1744.47L1386.09 1729.47C1411.55 1733.85 1432.21 1721.17 1457.61 1725.85C1513.34 1711.69 1572.72 1715.43 1631.51 1714.53C1688.6 1713.66 1746.24 1716.41 1803.08 1721.96C1850.98 1726.64 1894.63 1721.49 1942.83 1721.43C1974.19 1721.39 2016.93 1731.37 2047.41 1717.48C1904.48 1692.67 1756.76 1706.46 1612.49 1700.54C1529.15 1697.12 1445.75 1701.49 1362.38 1700.31C1299.25 1699.42 1217.93 1702.73 1163.69 1664.79C1156.53 1659.78 1153.32 1648.74 1160.77 1642.09C1185.8 1619.72 1183.79 1604.54 1215.63 1604.79C1261.34 1605.14 1341.3 1600.9 1387.04 1599.35C1588.19 1592.53 1793.23 1599.88 1993.12 1575.69C2090.67 1563.89 2187.85 1549.47 2284.83 1533.74C2221.45 1533.19 2158.08 1531.67 2094.7 1531.43C1926.52 1530.79 1758.15 1520.74 1590.03 1516.28C1423 1511.85 1256.22 1511.33 1089.17 1514.35C1007.82 1515.83 926.42 1516.43 845.07 1514.49C772.66 1512.75 700.15 1504.33 627.81 1504.11C567.87 1503.93 508.09 1510.28 448.12 1508.94C395.46 1507.76 338.77 1501.95 293.93 1471.83C288.36 1468.08 285.84 1462.16 287.29 1455.5C296.2 1414.65 345.75 1403.63 380.98 1398.42C430.07 1391.16 478.88 1373.67 528.32 1370.07C810.28 1349.5 1095.43 1385.78 1377.8 1378.61C1522.47 1374.93 1667.1 1368.3 1811.35 1356.54C1873.73 1351.45 1935.91 1346.01 1998.37 1342.07C2023.64 1340.48 2101.78 1343.16 2127.15 1339.83C2092 1335.76 2005.93 1321.21 1970.19 1318.23C1889.73 1311.51 1779.01 1307.24 1782.99 1300.95C1794.73 1282.38 1852.31 1271.17 1915.5 1264.23L1913.61 1264.23C1910.5 1264.53 1907.39 1264.81 1904.28 1265.12C1725.76 1282.83 1560.19 1321.95 1381.17 1334.07C1203.82 1346.07 1014.31 1326.98 836.76 1320.74C747.55 1317.6 658.35 1313.99 569.09 1312.73C526.21 1312.13 483.13 1313.85 440.31 1311.96C400.66 1310.21 361.03 1305.08 321.39 1309.64C302.91 1311.77 303.12 1282.84 321.39 1280.74Z" />
			</g>
		</g>
	</g>
	<g id="10 copy 5">
		<g id="&lt;Group&gt;">
			<path id="&lt;Path&gt;" class="shp12" d="M1560.4 2600.51C1559.91 2600.49 1559.52 2600.48 1559.23 2600.47C1559.52 2600.48 1559.91 2600.49 1560.4 2600.51Z" />
			<path id="&lt;Path&gt;" class="shp13" d="M-2.45 2544.73L812.15 2541.74L1315.97 2528.47L1384.09 2513.47C1417.97 2519.3 1451.81 2525.32 1485.59 2531.73C1487.66 2531.82 1489.74 2531.91 1491.81 2532.01C1536.24 2534.2 1580.57 2535.99 1624.92 2537.33L1625.37 2539.31C1615.83 2547.44 1608.2 2554.22 1602.47 2559.64C1596.74 2565.06 1586.74 2570.03 1572.48 2574.55L1577.95 2578.87C1607.71 2581.75 1623.51 2586.55 1625.37 2593.27C1627.94 2602.58 1569.34 2600.83 1560.4 2600.51C1569.62 2600.85 1632.19 2602.92 1644.23 2597.59C1657.24 2591.83 1631.23 2587.51 1638.17 2580.31C1645.12 2573.11 1683.07 2575.99 1724.83 2575.99C1752.67 2575.99 1789.15 2573.59 1834.27 2568.79L1690.27 2548.63L1820.66 2540.31L1886.47 2541.74C1942.2 2530.19 1997.87 2518.08 2054.36 2515.75L2050.31 2508.31L2353.16 2477.93C2333.63 2475.14 2316.76 2470.87 2302.56 2465.11C2288.35 2459.35 2262.54 2456.47 2225.14 2456.47L2263.35 2440.58C2366.23 2447.37 2891.99 2473.24 2931.46 2467.99C2966.91 2463.27 3311.29 2472.07 3434.83 2475.41L3434.83 2048.23L-2.45 2048.23L-2.45 2544.73Z" />
		</g>
		<g id="10 copy">
			<g id="&lt;Group&gt;">
				<path id="&lt;Path&gt;" class="shp14" d="M1560.4 2600.51C1559.91 2600.49 1559.52 2600.48 1559.23 2600.47C1559.52 2600.48 1559.91 2600.49 1560.4 2600.51Z" />
				<path id="&lt;Path&gt;" class="shp15" d="M1820.66 2540.31L1868.17 2541.34C1852.18 2539.97 1836.22 2538.39 1820.31 2536.79C1764.84 2531.21 1715.57 2533.15 1659.82 2532.71C1624.87 2532.43 1583.94 2528.46 1549.65 2534.6C1574.74 2535.63 1599.83 2536.57 1624.92 2537.33L1625.37 2539.31C1615.83 2547.44 1608.2 2554.22 1602.47 2559.64C1596.74 2565.06 1586.74 2570.03 1572.48 2574.55L1577.95 2578.87C1607.71 2581.75 1623.51 2586.55 1625.37 2593.27C1627.94 2602.58 1569.34 2600.83 1560.4 2600.51C1569.62 2600.85 1632.19 2602.92 1644.23 2597.59C1657.24 2591.83 1631.23 2587.51 1638.17 2580.31C1645.12 2573.11 1683.07 2575.99 1724.83 2575.99C1752.67 2575.99 1726.27 2571.26 1645.63 2561.8L1690.27 2548.63L1820.66 2540.31Z" />
				<path id="&lt;Compound Path&gt;" fill-rule="evenodd" class="shp16" d="M3434.83 2048.23L3434.83 2475.41C3311.29 2472.07 2966.91 2463.27 2931.46 2467.99C2891.99 2473.24 2366.23 2447.37 2263.35 2440.58L2225.14 2456.47C2262.54 2456.47 2288.35 2459.35 2302.56 2465.11C2316.76 2470.87 2333.63 2475.14 2353.16 2477.93L2052.61 2478.07C2059.99 2470.7 2121.62 2461.7 2110.86 2459.35C1962.48 2426.94 1784.75 2462.26 1634.27 2456.69C1551.31 2453.61 1468.58 2455.83 1385.6 2455.61C1347.63 2455.51 1309.61 2454.7 1271.77 2451.3C1246.97 2449.07 1221.48 2445.72 1198.55 2436.03C1221.55 2428.74 1251.39 2431.91 1272.41 2432.58C1314.27 2433.92 1340.18 2414.7 1382.03 2413.27C1479.86 2409.92 1593.54 2423.1 1691.23 2416.66C1884.53 2403.91 2086.54 2419.61 2277.79 2389.03C2346.47 2378.04 2405.2 2326.53 2473.72 2314.59C2478.46 2314.45 2483.19 2314.28 2487.93 2314.17C2523.25 2313.34 2558.99 2311.06 2590.36 2293.27C2605.38 2284.74 2594.67 2264.13 2579.22 2266.85C2543.63 2273.13 2508.02 2279.41 2472.41 2285.63C2438.5 2286.48 2187.99 2288.97 2154.05 2289.43C2075.15 2290.48 2420.04 2231.26 2341.15 2230.39C2177.66 2228.59 1839.27 2251 1675.85 2246.23C1513.19 2241.47 1318.26 2265.09 1155.53 2267.98C997.86 2270.79 840.3 2273.37 682.85 2262.13C618.25 2257.51 554.53 2262.34 489.91 2263.89C433.02 2265.26 526.32 2251.99 570.58 2233.27C539.58 2211.67 382.21 2210.4 406.18 2207.99C452.27 2203.36 498.45 2198.81 544.68 2195.74C682.76 2186.57 821.28 2188.23 959.56 2190.81C1236.12 2195.98 1512.27 2192.67 1788.2 2171.13C1856.49 2165.8 1924.56 2159.42 1992.94 2155.19C2052.96 2151.48 2322.2 2180.34 2378.59 2157.74C3040.67 2152.66 2331.08 2134.7 2168.35 2096.42C2115.39 2083.96 2056.15 2094.53 2004.61 2074.99C2018.09 2068.66 2036.26 2067.88 2048.98 2067.03C2072.79 2065.42 2096.53 2064.99 2120.33 2063.04C2192.82 2057.09 2265.48 2053.66 2338.17 2051.32C2370.84 2050.27 2403.52 2049.26 2436.19 2048.23L3434.83 2048.23ZM2222.9 2195.7C2144.17 2198.47 1906.33 2178.55 1753.63 2206.5C1735.47 2209.83 1843.07 2223.44 1861.63 2221.8C1940.17 2214.83 2019.05 2215.93 2097.79 2213.16C2116.33 2212.51 2241.53 2195.05 2222.9 2195.7ZM3055.39 2204.42C2948.47 2202.91 2841.64 2192.62 2734.67 2196.62C2685.01 2198.48 2636.65 2205.38 2587.4 2211.51C2568.61 2213.85 3133.93 2103.57 2433.08 2220.31C2392.08 2227.14 2407.39 2250.55 2479.86 2251.52C2506.93 2251.89 2532.8 2255.18 2559.7 2254.98C2588.76 2254.77 2617.96 2256.97 2646.98 2258.45C2707.25 2261.53 2767.5 2264.84 2827.87 2265C2846.47 2265.05 2846.49 2236.14 2827.87 2236.1C2773.18 2235.95 2718.59 2233.23 2663.99 2230.42C2693 2227.53 2722.09 2225.72 2751.41 2225.01C2852.82 2222.58 2954.03 2231.89 3055.39 2233.32C3073.99 2233.58 3074 2204.68 3055.39 2204.42Z" />
				<path id="&lt;Path&gt;" class="shp17" d="M319.39 2064.74C364.02 2059.6 408.53 2066.85 453.19 2067.55C503.91 2068.34 554.65 2067.44 605.39 2068.5C704.52 2070.57 800.6 2060.33 899.71 2063.35C1080.25 2068.83 1262.9 2078.97 1442.95 2064.65C1503.81 2059.81 1564.59 2054.17 1625.34 2048.23L-2.45 2048.23L-2.45 2544.73L812.15 2541.74L1315.97 2528.47L1384.09 2513.47C1409.55 2517.85 1430.21 2505.17 1455.61 2509.85C1511.34 2495.69 1570.72 2499.43 1629.51 2498.53C1686.6 2497.66 1744.24 2500.41 1801.08 2505.96C1848.98 2510.64 1892.63 2505.49 1940.83 2505.43C1972.19 2505.39 2014.93 2515.37 2045.41 2501.48C1902.48 2476.67 1754.76 2490.46 1610.49 2484.54C1527.15 2481.12 1443.75 2485.49 1360.38 2484.31C1297.25 2483.42 1215.93 2486.73 1161.69 2448.79C1154.53 2443.78 1151.32 2432.74 1158.77 2426.09C1183.8 2403.72 1181.79 2388.54 1213.63 2388.79C1259.34 2389.14 1339.3 2384.9 1385.04 2383.35C1586.19 2376.53 1791.23 2383.88 1991.12 2359.69C2088.67 2347.89 2185.85 2333.47 2282.83 2317.74C2219.45 2317.19 2156.08 2315.67 2092.7 2315.43C1924.52 2314.79 1756.15 2304.74 1588.03 2300.28C1421 2295.85 1254.22 2295.33 1087.17 2298.35C1005.82 2299.83 924.42 2300.43 843.07 2298.49C770.66 2296.75 698.15 2288.33 625.81 2288.11C565.87 2287.93 506.09 2294.28 446.12 2292.94C393.46 2291.76 336.77 2285.95 291.93 2255.83C286.36 2252.08 283.84 2246.16 285.29 2239.5C294.2 2198.65 343.75 2187.63 378.98 2182.42C428.07 2175.16 476.88 2157.67 526.32 2154.07C808.28 2133.5 1093.43 2169.78 1375.8 2162.61C1520.47 2158.93 1665.1 2152.3 1809.35 2140.54C1871.73 2135.45 1933.91 2130.01 1996.37 2126.07C2021.64 2124.48 2099.78 2127.16 2125.15 2123.83C2090 2119.76 2003.93 2105.21 1968.19 2102.23C1887.73 2095.51 1777.01 2091.24 1780.99 2084.95C1792.73 2066.38 1850.31 2055.17 1913.5 2048.23L1911.61 2048.23C1908.5 2048.53 1905.39 2048.81 1902.28 2049.12C1723.76 2066.83 1558.19 2105.95 1379.17 2118.07C1201.82 2130.07 1012.31 2110.98 834.76 2104.74C745.55 2101.6 656.35 2097.99 567.09 2096.73C524.21 2096.13 481.13 2097.85 438.31 2095.96C398.66 2094.21 359.03 2089.08 319.39 2093.64C300.91 2095.77 301.12 2066.84 319.39 2064.74Z" />
			</g>
		</g>
	</g>
	<g id="10 copy 4">
		<g id="&lt;Group&gt;">
			<path id="&lt;Path&gt;" class="shp18" d="M1874.43 2224.28C1874.92 2224.26 1875.31 2224.25 1875.6 2224.24C1875.31 2224.25 1874.92 2224.26 1874.43 2224.28Z" />
			<path id="&lt;Path&gt;" class="shp19" d="M3437.28 2168.5L2622.68 2165.51L2118.86 2152.24L2050.74 2137.24C2016.86 2143.07 1983.02 2149.09 1949.24 2155.5C1947.17 2155.59 1945.09 2155.68 1943.02 2155.78C1898.59 2157.97 1854.26 2159.76 1809.91 2161.1L1809.46 2163.08C1819 2171.21 1826.63 2177.99 1832.36 2183.41C1838.09 2188.83 1848.09 2193.8 1862.35 2198.32L1856.88 2202.64C1827.12 2205.52 1811.32 2210.32 1809.46 2217.04C1806.89 2226.35 1865.49 2224.6 1874.43 2224.28C1865.21 2224.62 1802.64 2226.69 1790.6 2221.36C1777.59 2215.6 1803.6 2211.28 1796.66 2204.08C1789.71 2196.88 1751.76 2199.76 1710 2199.76C1682.16 2199.76 1645.68 2197.36 1600.56 2192.56L1744.56 2172.4L1614.17 2164.08L1548.36 2165.51C1492.63 2153.96 1436.96 2141.85 1380.47 2139.52L1384.52 2132.08L1081.67 2101.7C1101.2 2098.91 1118.07 2094.64 1132.27 2088.88C1146.48 2083.12 1172.29 2080.24 1209.69 2080.24L1171.48 2064.35C1068.6 2071.14 542.84 2097.01 503.37 2091.76C467.92 2087.04 123.54 2095.84 0 2099.18L0 1672L3437.28 1672L3437.28 2168.5Z" />
		</g>
		<g id="10 copy">
			<g id="&lt;Group&gt;">
				<path id="&lt;Path&gt;" class="shp20" d="M1874.43 2224.28C1874.92 2224.26 1875.31 2224.25 1875.6 2224.24C1875.31 2224.25 1874.92 2224.26 1874.43 2224.28Z" />
				<path id="&lt;Path&gt;" class="shp21" d="M1614.17 2164.08L1566.66 2165.11C1582.65 2163.74 1598.61 2162.16 1614.52 2160.56C1669.99 2154.98 1719.26 2156.92 1775.01 2156.48C1809.96 2156.2 1850.89 2152.23 1885.18 2158.37C1860.09 2159.4 1835 2160.34 1809.91 2161.1L1809.46 2163.08C1819 2171.21 1826.63 2177.99 1832.36 2183.41C1838.09 2188.83 1848.09 2193.8 1862.35 2198.32L1856.88 2202.64C1827.12 2205.52 1811.32 2210.32 1809.46 2217.04C1806.89 2226.35 1865.49 2224.6 1874.43 2224.28C1865.21 2224.62 1802.64 2226.69 1790.6 2221.36C1777.59 2215.6 1803.6 2211.28 1796.66 2204.08C1789.71 2196.88 1751.76 2199.76 1710 2199.76C1682.16 2199.76 1708.56 2195.03 1789.2 2185.57L1744.56 2172.4L1614.17 2164.08Z" />
				<path id="&lt;Compound Path&gt;" fill-rule="evenodd" class="shp22" d="M998.64 1672C1031.31 1673.03 1063.99 1674.04 1096.66 1675.09C1169.35 1677.43 1242.01 1680.86 1314.5 1686.81C1338.3 1688.76 1362.04 1689.19 1385.85 1690.8C1398.57 1691.65 1416.74 1692.43 1430.22 1698.76C1378.68 1718.3 1319.44 1707.73 1266.48 1720.19C1103.75 1758.47 394.16 1776.43 1056.24 1781.51C1112.63 1804.11 1381.87 1775.25 1441.89 1778.96C1510.27 1783.19 1578.34 1789.57 1646.63 1794.9C1922.56 1816.44 2198.71 1819.75 2475.27 1814.58C2613.55 1812 2752.07 1810.34 2890.15 1819.51C2936.38 1822.58 2982.56 1827.13 3028.65 1831.76C3052.62 1834.17 2895.25 1835.44 2864.25 1857.04C2908.51 1875.76 3001.81 1889.03 2944.92 1887.66C2880.3 1886.11 2816.58 1881.28 2751.98 1885.9C2594.53 1897.14 2436.97 1894.56 2279.3 1891.75C2116.57 1888.86 1921.64 1865.24 1758.98 1870C1595.56 1874.77 1257.17 1852.36 1093.68 1854.16C1014.79 1855.03 1359.68 1914.25 1280.78 1913.2C1246.84 1912.74 996.33 1910.25 962.42 1909.4C926.81 1903.18 891.2 1896.9 855.61 1890.62C840.16 1887.9 829.45 1908.51 844.47 1917.04C875.84 1934.83 911.58 1937.11 946.9 1937.94C951.64 1938.05 956.37 1938.22 961.11 1938.36C1029.63 1950.3 1088.36 2001.81 1157.04 2012.8C1348.29 2043.38 1550.3 2027.68 1743.6 2040.43C1841.29 2046.87 1954.97 2033.69 2052.8 2037.04C2094.65 2038.47 2120.56 2057.69 2162.42 2056.35C2183.44 2055.68 2213.28 2052.51 2236.28 2059.8C2213.35 2069.49 2187.86 2072.84 2163.06 2075.07C2125.22 2078.47 2087.2 2079.28 2049.23 2079.38C1966.25 2079.6 1883.52 2077.38 1800.56 2080.46C1650.08 2086.03 1472.35 2050.71 1323.97 2083.12C1313.21 2085.47 1374.84 2094.47 1382.22 2101.84L1081.67 2101.7C1101.2 2098.91 1118.07 2094.64 1132.27 2088.88C1146.48 2083.12 1172.29 2080.24 1209.69 2080.24L1171.48 2064.35C1068.6 2071.14 542.84 2097.01 503.37 2091.76C467.92 2087.04 123.54 2095.84 0 2099.18L0 1672L998.64 1672ZM1337.04 1836.93C1415.78 1839.7 1494.66 1838.6 1573.2 1845.57C1591.76 1847.21 1699.36 1833.6 1681.2 1830.27C1528.5 1802.32 1290.66 1822.24 1211.93 1819.47C1193.3 1818.82 1318.5 1836.28 1337.04 1836.93ZM379.44 1857.09C480.8 1855.66 582.01 1846.35 683.42 1848.78C712.74 1849.49 741.83 1851.3 770.84 1854.19C716.24 1857 661.65 1859.72 606.96 1859.87C588.34 1859.91 588.36 1888.82 606.96 1888.77C667.33 1888.61 727.58 1885.3 787.85 1882.22C816.87 1880.74 846.07 1878.54 875.13 1878.75C902.03 1878.95 927.9 1875.66 954.97 1875.29C1027.44 1874.32 1042.75 1850.91 1001.75 1844.08C300.9 1727.34 866.22 1837.62 847.43 1835.28C798.18 1829.15 749.82 1822.25 700.16 1820.39C593.19 1816.39 486.36 1826.68 379.44 1828.19C360.83 1828.45 360.84 1857.35 379.44 1857.09Z" />
				<path id="&lt;Path&gt;" class="shp23" d="M3115.44 1688.51C3070.81 1683.37 3026.3 1690.62 2981.64 1691.32C2930.92 1692.11 2880.18 1691.21 2829.44 1692.27C2730.31 1694.34 2634.23 1684.1 2535.12 1687.12C2354.58 1692.6 2171.93 1702.74 1991.88 1688.42C1931.02 1683.58 1870.24 1677.94 1809.49 1672L3437.28 1672L3437.28 2168.5L2622.68 2165.51L2118.86 2152.24L2050.74 2137.24C2025.28 2141.62 2004.62 2128.94 1979.22 2133.62C1923.49 2119.46 1864.11 2123.2 1805.32 2122.3C1748.23 2121.43 1690.59 2124.18 1633.75 2129.73C1585.85 2134.41 1542.2 2129.26 1494 2129.2C1462.64 2129.16 1419.9 2139.14 1389.42 2125.25C1532.35 2100.44 1680.07 2114.23 1824.34 2108.31C1907.68 2104.89 1991.08 2109.26 2074.45 2108.08C2137.58 2107.19 2218.9 2110.5 2273.14 2072.56C2280.3 2067.55 2283.51 2056.51 2276.06 2049.86C2251.03 2027.49 2253.04 2012.31 2221.2 2012.56C2175.49 2012.91 2095.53 2008.67 2049.79 2007.12C1848.64 2000.3 1643.6 2007.65 1443.71 1983.46C1346.16 1971.66 1248.98 1957.24 1152 1941.51C1215.38 1940.96 1278.75 1939.44 1342.13 1939.2C1510.31 1938.56 1678.68 1928.51 1846.8 1924.05C2013.83 1919.62 2180.61 1919.1 2347.66 1922.12C2429.01 1923.6 2510.41 1924.2 2591.76 1922.26C2664.17 1920.52 2736.68 1912.1 2809.02 1911.88C2868.96 1911.7 2928.74 1918.05 2988.71 1916.71C3041.37 1915.53 3098.06 1909.72 3142.9 1879.6C3148.47 1875.85 3150.99 1869.93 3149.54 1863.27C3140.63 1822.42 3091.08 1811.4 3055.85 1806.19C3006.76 1798.93 2957.95 1781.44 2908.51 1777.84C2626.55 1757.27 2341.4 1793.55 2059.03 1786.38C1914.36 1782.7 1769.73 1776.07 1625.48 1764.31C1563.1 1759.22 1500.92 1753.78 1438.46 1749.84C1413.19 1748.25 1335.05 1750.93 1309.68 1747.6C1344.83 1743.53 1430.9 1728.98 1466.64 1726C1547.1 1719.28 1657.82 1715.01 1653.84 1708.72C1642.1 1690.15 1584.52 1678.94 1521.33 1672L1523.22 1672C1526.33 1672.3 1529.44 1672.58 1532.55 1672.89C1711.07 1690.6 1876.64 1729.72 2055.66 1741.84C2233.01 1753.84 2422.52 1734.75 2600.07 1728.51C2689.28 1725.37 2778.48 1721.76 2867.74 1720.5C2910.62 1719.9 2953.7 1721.62 2996.52 1719.73C3036.17 1717.98 3075.8 1712.85 3115.44 1717.41C3133.92 1719.54 3133.71 1690.61 3115.44 1688.51Z" />
			</g>
		</g>
	</g>
	<g id="10 copy 6">
		<g id="&lt;Group&gt;">
			<path id="&lt;Path&gt;" class="shp24" d="M1872.43 2899.28C1872.92 2899.26 1873.31 2899.25 1873.6 2899.24C1873.31 2899.25 1872.92 2899.26 1872.43 2899.28Z" />
			<path id="&lt;Path&gt;" class="shp25" d="M3435.28 2843.5L2620.68 2840.51L2116.86 2827.24L2048.74 2812.24C2014.86 2818.07 1981.02 2824.09 1947.24 2830.5C1945.17 2830.59 1943.09 2830.68 1941.02 2830.78C1896.59 2832.97 1852.26 2834.76 1807.91 2836.1L1807.46 2838.08C1817 2846.21 1824.63 2852.99 1830.36 2858.41C1836.09 2863.83 1846.09 2868.8 1860.35 2873.32L1854.88 2877.64C1825.12 2880.52 1809.32 2885.32 1807.46 2892.04C1804.89 2901.35 1863.49 2899.6 1872.43 2899.28C1863.21 2899.62 1800.64 2901.69 1788.6 2896.36C1775.59 2890.6 1801.6 2886.28 1794.66 2879.08C1787.71 2871.88 1749.76 2874.76 1708 2874.76C1680.16 2874.76 1643.68 2872.36 1598.56 2867.56L1742.56 2847.4L1612.17 2839.08L1546.36 2840.51C1490.63 2828.96 1434.96 2816.85 1378.47 2814.52L1382.52 2807.08L1079.67 2776.7C1099.2 2773.91 1116.07 2769.64 1130.27 2763.88C1144.48 2758.12 1170.29 2755.24 1207.69 2755.24L1169.48 2739.35C1066.6 2746.14 540.84 2772.01 501.37 2766.76C465.92 2762.04 121.54 2770.84 -2 2774.18L-2 2347L3435.28 2347L3435.28 2843.5Z" />
		</g>
		<g id="10 copy">
			<g id="&lt;Group&gt;">
				<path id="&lt;Path&gt;" class="shp26" d="M1872.43 2899.28C1872.92 2899.26 1873.31 2899.25 1873.6 2899.24C1873.31 2899.25 1872.92 2899.26 1872.43 2899.28Z" />
				<path id="&lt;Path&gt;" class="shp27" d="M1612.17 2839.08L1564.66 2840.11C1580.65 2838.74 1596.61 2837.16 1612.52 2835.56C1667.99 2829.98 1717.26 2831.92 1773.01 2831.48C1807.96 2831.2 1848.89 2827.23 1883.18 2833.37C1858.09 2834.4 1833 2835.34 1807.91 2836.1L1807.46 2838.08C1817 2846.21 1824.63 2852.99 1830.36 2858.41C1836.09 2863.83 1846.09 2868.8 1860.35 2873.32L1854.88 2877.64C1825.12 2880.52 1809.32 2885.32 1807.46 2892.04C1804.89 2901.35 1863.49 2899.6 1872.43 2899.28C1863.21 2899.62 1800.64 2901.69 1788.6 2896.36C1775.59 2890.6 1801.6 2886.28 1794.66 2879.08C1787.71 2871.88 1749.76 2874.76 1708 2874.76C1680.16 2874.76 1706.56 2870.03 1787.2 2860.57L1742.56 2847.4L1612.17 2839.08Z" />
				<path id="&lt;Compound Path&gt;" fill-rule="evenodd" class="shp28" d="M996.64 2347C1029.31 2348.03 1061.99 2349.04 1094.66 2350.09C1167.35 2352.43 1240.01 2355.86 1312.5 2361.81C1336.3 2363.76 1360.04 2364.19 1383.85 2365.8C1396.57 2366.65 1414.74 2367.43 1428.22 2373.76C1376.68 2393.3 1317.44 2382.73 1264.48 2395.19C1101.75 2433.47 392.16 2451.43 1054.24 2456.51C1110.63 2479.11 1379.87 2450.25 1439.89 2453.96C1508.27 2458.19 1576.34 2464.57 1644.63 2469.9C1920.56 2491.44 2196.71 2494.75 2473.27 2489.58C2611.55 2487 2750.07 2485.34 2888.15 2494.51C2934.38 2497.58 2980.56 2502.13 3026.65 2506.76C3050.62 2509.17 2893.25 2510.44 2862.25 2532.04C2906.51 2550.76 2999.81 2564.03 2942.92 2562.66C2878.3 2561.11 2814.58 2556.28 2749.98 2560.9C2592.53 2572.14 2434.97 2569.56 2277.3 2566.75C2114.57 2563.86 1919.64 2540.24 1756.98 2545C1593.56 2549.77 1255.17 2527.36 1091.68 2529.16C1012.79 2530.03 1357.68 2589.25 1278.78 2588.2C1244.84 2587.74 994.33 2585.25 960.42 2584.4C924.81 2578.18 889.2 2571.9 853.61 2565.62C838.16 2562.9 827.45 2583.51 842.47 2592.04C873.84 2609.83 909.58 2612.11 944.9 2612.94C949.64 2613.05 954.37 2613.22 959.11 2613.36C1027.63 2625.3 1086.36 2676.81 1155.04 2687.8C1346.29 2718.38 1548.3 2702.68 1741.6 2715.43C1839.29 2721.87 1952.97 2708.69 2050.8 2712.04C2092.65 2713.47 2118.56 2732.69 2160.42 2731.35C2181.44 2730.68 2211.28 2727.51 2234.28 2734.8C2211.35 2744.49 2185.86 2747.84 2161.06 2750.07C2123.22 2753.47 2085.2 2754.28 2047.23 2754.38C1964.25 2754.6 1881.52 2752.38 1798.56 2755.46C1648.08 2761.03 1470.35 2725.71 1321.97 2758.12C1311.21 2760.47 1372.84 2769.47 1380.22 2776.84L1079.67 2776.7C1099.2 2773.91 1116.07 2769.64 1130.27 2763.88C1144.48 2758.12 1170.29 2755.24 1207.69 2755.24L1169.48 2739.35C1066.6 2746.14 540.84 2772.01 501.37 2766.76C465.92 2762.04 121.54 2770.84 -2 2774.18L-2 2347L996.64 2347ZM1335.04 2511.93C1413.78 2514.7 1492.66 2513.6 1571.2 2520.57C1589.76 2522.21 1697.36 2508.6 1679.2 2505.27C1526.5 2477.32 1288.66 2497.24 1209.93 2494.47C1191.3 2493.82 1316.5 2511.28 1335.04 2511.93ZM377.44 2532.09C478.8 2530.66 580.01 2521.35 681.42 2523.78C710.74 2524.49 739.83 2526.3 768.84 2529.19C714.24 2532 659.65 2534.72 604.96 2534.87C586.34 2534.91 586.36 2563.82 604.96 2563.77C665.33 2563.61 725.58 2560.3 785.85 2557.22C814.87 2555.74 844.07 2553.54 873.13 2553.75C900.03 2553.95 925.9 2550.66 952.97 2550.29C1025.44 2549.32 1040.75 2525.91 999.75 2519.08C298.9 2402.34 864.22 2512.62 845.43 2510.28C796.18 2504.15 747.82 2497.25 698.16 2495.39C591.19 2491.39 484.36 2501.68 377.44 2503.19C358.83 2503.45 358.84 2532.35 377.44 2532.09Z" />
				<path id="&lt;Path&gt;" class="shp29" d="M3113.44 2363.51C3068.81 2358.37 3024.3 2365.62 2979.64 2366.32C2928.92 2367.11 2878.18 2366.21 2827.44 2367.27C2728.31 2369.34 2632.23 2359.1 2533.12 2362.12C2352.58 2367.6 2169.93 2377.74 1989.88 2363.42C1929.02 2358.58 1868.24 2352.94 1807.49 2347L3435.28 2347L3435.28 2843.5L2620.68 2840.51L2116.86 2827.24L2048.74 2812.24C2023.28 2816.62 2002.62 2803.94 1977.22 2808.62C1921.49 2794.46 1862.11 2798.2 1803.32 2797.3C1746.23 2796.43 1688.59 2799.18 1631.75 2804.73C1583.85 2809.41 1540.2 2804.26 1492 2804.2C1460.64 2804.16 1417.9 2814.14 1387.42 2800.25C1530.35 2775.44 1678.07 2789.23 1822.34 2783.31C1905.68 2779.89 1989.08 2784.26 2072.45 2783.08C2135.58 2782.19 2216.9 2785.5 2271.14 2747.56C2278.3 2742.55 2281.51 2731.51 2274.06 2724.86C2249.03 2702.49 2251.04 2687.31 2219.2 2687.56C2173.49 2687.91 2093.53 2683.67 2047.79 2682.12C1846.64 2675.3 1641.6 2682.65 1441.71 2658.46C1344.16 2646.66 1246.98 2632.24 1150 2616.51C1213.38 2615.96 1276.75 2614.44 1340.13 2614.2C1508.31 2613.56 1676.68 2603.51 1844.8 2599.05C2011.83 2594.62 2178.61 2594.1 2345.66 2597.12C2427.01 2598.6 2508.41 2599.2 2589.76 2597.26C2662.17 2595.52 2734.68 2587.1 2807.02 2586.88C2866.96 2586.7 2926.74 2593.05 2986.71 2591.71C3039.37 2590.53 3096.06 2584.72 3140.9 2554.6C3146.47 2550.85 3148.99 2544.93 3147.54 2538.27C3138.63 2497.42 3089.08 2486.4 3053.85 2481.19C3004.76 2473.93 2955.95 2456.44 2906.51 2452.84C2624.55 2432.27 2339.4 2468.55 2057.03 2461.38C1912.36 2457.7 1767.73 2451.07 1623.48 2439.31C1561.1 2434.22 1498.92 2428.78 1436.46 2424.84C1411.19 2423.25 1333.05 2425.93 1307.68 2422.6C1342.83 2418.53 1428.9 2403.98 1464.64 2401C1545.1 2394.28 1655.82 2390.01 1651.84 2383.72C1640.1 2365.15 1582.52 2353.94 1519.33 2347L1521.22 2347C1524.33 2347.3 1527.44 2347.58 1530.55 2347.89C1709.07 2365.6 1874.64 2404.72 2053.66 2416.84C2231.01 2428.84 2420.52 2409.75 2598.07 2403.51C2687.28 2400.37 2776.48 2396.76 2865.74 2395.5C2908.62 2394.9 2951.7 2396.62 2994.52 2394.73C3034.17 2392.98 3073.8 2387.85 3113.44 2392.41C3131.92 2394.54 3131.71 2365.61 3113.44 2363.51Z" />
			</g>
		</g>
	</g>
</svg>