<svg version="1.2" baseProfile="tiny-ps" xmlns="http://www.w3.org/2000/svg" viewBox="0 0 3435 2130" width="3435" height="2130">
	<title>natural-4821583-ai</title>
	<defs>
		<linearGradient id="grd1" gradientUnits="userSpaceOnUse"  x1="-30.157" y1="2276.596" x2="4.342" y2="359.046">
			<stop offset="0" stop-color="#111155"  />
			<stop offset="1" stop-color="#4545d9"  />
		</linearGradient>
	</defs>
	<style>
		tspan { white-space:pre }
		.shp0 { fill: url(#grd1) } 
	</style>
	<g id="2">
		<path id="&lt;Path&gt;" class="shp0" d="M3436.31 959.58C3429.33 959.52 3406.41 959.13 3389.51 956.71C3369.35 953.83 3365.03 949.51 3340.55 949.51C3316.07 949.51 3305.99 945.19 3269.99 939.43C3245.99 935.59 3208.07 929.35 3156.23 920.71L3113.03 926.47C3098.63 921.67 3088.07 917.83 3081.35 914.95C3074.63 912.07 3063.59 911.59 3048.23 913.51C3029.03 907.75 3014.15 903.43 3003.59 900.55C2987.75 896.23 2958.95 880.39 2951.75 870.31C2946.95 863.59 2936.39 861.19 2920.07 863.11C2904.71 856.39 2893.19 850.63 2885.51 845.83C2877.83 841.03 2871.11 841.99 2865.35 848.71L2835.11 857.35C2817.83 864.07 2801.03 869.83 2784.71 874.63C2768.39 879.43 2750.63 885.67 2731.43 893.35L2698.31 890.47L2682.47 907.75C2669.99 916.39 2657.99 924.55 2646.47 932.23C2634.95 939.91 2626.31 946.63 2620.55 952.39L2594.63 961.03L2552.87 978.31C2507.75 985.99 2481.83 990.31 2475.11 991.27C2465.03 992.71 2411.75 1020.07 2390.15 1027.27C2375.75 1032.07 2321.03 1057.03 2225.99 1102.15C2205.83 1105.99 2188.07 1112.23 2172.71 1120.87C2157.35 1129.51 2141.03 1137.19 2123.75 1143.91L1949.51 1189.99L1913.51 1201.51C1890.47 1202.47 1871.27 1200.55 1855.91 1195.75C1832.87 1188.55 1821.35 1201.51 1801.19 1200.07C1781.03 1198.63 1662.95 1172.71 1654.31 1172.71C1645.67 1172.71 1634.15 1165.51 1626.95 1166.95C1619.75 1168.39 1606.79 1159.75 1601.03 1156.87C1595.27 1153.99 1585.19 1145.35 1570.79 1145.35C1561.19 1145.35 1548.23 1140.55 1531.91 1130.95L1510.31 1125.19C1499.75 1121.35 1490.15 1116.07 1481.51 1109.35C1468.55 1099.27 1459.91 1105.03 1441.19 1103.59C1422.47 1102.15 1410.95 1089.19 1395.11 1086.31C1379.27 1083.43 1374.95 1086.31 1359.11 1094.95C1343.27 1103.59 1333.19 1090.63 1314.47 1086.31C1295.75 1081.99 1295.75 1083.43 1274.15 1077.67C1259.75 1073.83 1238.15 1061.35 1209.35 1040.23C1175.75 1022.95 1155.59 1011.91 1148.87 1007.11C1138.79 999.91 1120.07 989.83 1108.55 982.63C1097.03 975.43 1085.51 961.03 1072.55 952.39C1059.59 943.75 1048.07 946.63 1023.59 937.99C999.11 929.35 978.95 913.51 960.23 904.87C947.75 899.11 924.23 886.63 889.67 867.43C862.79 849.19 844.07 838.15 833.51 834.31C817.67 828.55 829.19 835.75 821.99 835.75C814.79 835.75 798.95 828.55 783.11 824.23C767.27 819.91 764.39 821.35 731.27 821.35C698.15 821.35 688.07 817.03 665.03 814.15C641.99 811.27 616.07 804.07 601.67 804.07C587.27 804.07 580.07 801.19 555.59 801.19C531.11 801.19 533.99 793.99 518.15 789.67C502.31 785.35 497.99 788.23 480.71 783.91C463.43 779.59 421.67 765.19 387.11 762.31C352.55 759.43 329.51 756.55 300.71 762.31C271.91 768.07 225.83 759.43 185.51 762.31C158.61 764.23 62.58 764.87 -0.97 764.23L-0.97 2129.59L3436.31 2129.59L3436.31 959.58Z" />
	</g>
</svg>