<svg version="1.2" baseProfile="tiny-ps" xmlns="http://www.w3.org/2000/svg" viewBox="0 0 3435 2130" width="3435" height="2130">
	<title>mountain-svg</title>
	<defs>
		<linearGradient id="grd1" gradientUnits="userSpaceOnUse"  x1="-18.113" y1="1756.262" x2="7.636" y2="337.223">
			<stop offset="0" stop-color="#163a72"  />
			<stop offset="0.57" stop-color="#5474ff"  />
		</linearGradient>
	</defs>
	<style>
		tspan { white-space:pre }
		.shp0 { fill: url(#grd1) } 
	</style>
	<g id="1">
		<path id="&lt;Path&gt;" class="shp0" d="M3437.31 881.02C3419.05 880.09 3399.09 880.33 3380.43 883.27C3325.71 891.91 3331.47 880.39 3247.95 871.75C3164.43 863.11 3178.83 912.07 3095.31 926.47C3011.79 940.87 2637.39 966.79 2588.43 972.55C2539.47 978.31 2550.99 963.91 2478.99 958.15C2406.99 952.39 2441.55 963.91 2372.43 972.55C2326.35 978.31 2244.75 970.15 2127.63 948.07C2002.81 955.59 1888.56 965.11 1784.88 976.63C1629.36 993.91 1643.79 950.95 1560.27 945.19C1476.75 939.43 1390.12 968.43 1329.87 962.47C1283.57 957.89 1236.27 897.67 1095.15 897.67C1032.59 889.41 983.63 886.05 948.27 887.59C912.91 889.14 864.43 892.5 802.83 897.67L716.43 889.03L630.03 877.51C566.67 854.47 511.95 838.15 465.87 828.55C412.11 817.35 125.03 846.21 0.03 859.6L0.03 2129.59L3437.31 2129.59L3437.31 881.02Z" />
	</g>
</svg>