<svg version="1.2" baseProfile="tiny-ps" xmlns="http://www.w3.org/2000/svg" viewBox="0 0 1984 1766" width="1984" height="1766">
	<title>sun-vector-svg</title>
	<defs>
		<filter x="-50%" y="-50%" width="200%" height="200%" id="flt1"> <feGaussianBlur stdDeviation="100.582" /> </filter>
		<filter x="-50%" y="-50%" width="200%" height="200%" id="flt2"> <feGaussianBlur stdDeviation="69.765" /> </filter>
		<linearGradient id="grd1" gradientUnits="userSpaceOnUse"  x1="1025.108" y1="840.134" x2="1025.108" y2="1074.433">
			<stop offset="0" stop-color="#ffba8b"  />
			<stop offset="1" stop-color="#ffffff" stop-opacity="0" />
		</linearGradient>
	</defs>
	<style>
		tspan { white-space:pre }
		.shp0 { filter: url(#flt1);fill: #ff1f00 } 
		.shp1 { filter: url(#flt2);fill: #ff9100 } 
		.shp2 { fill: url(#grd1) } 
	</style>
	<g id="Layer">
		<path id="Layer" class="shp0" d="M1577.16 883.41C1577.16 1038.39 1515.6 1187.02 1406.01 1296.6C1296.43 1406.18 1147.8 1467.74 992.83 1467.74C837.86 1467.74 689.23 1406.18 579.65 1296.6C470.06 1187.02 408.5 1038.39 408.5 883.41C408.5 728.44 470.06 579.81 579.65 470.23C689.23 360.65 837.86 299.09 992.83 299.09C1147.8 299.09 1296.43 360.65 1406.01 470.23C1515.6 579.81 1577.16 728.44 1577.16 883.41L1577.16 883.41Z" />
		<path id="Layer" class="shp1" d="M1473.73 874.36C1473.73 1135.51 1262.04 1347.21 1000.89 1347.21C739.74 1347.21 528.04 1135.51 528.04 874.36C528.04 613.21 739.74 401.52 1000.89 401.52C1262.04 401.52 1473.73 613.21 1473.73 874.36L1473.73 874.36Z" />
		<path id="Layer" class="shp2" d="M1399.41 874.42C1399.41 1094.55 1220.96 1273 1000.83 1273C780.7 1273 602.25 1094.55 602.25 874.42C602.25 654.29 780.7 475.84 1000.83 475.84C1220.96 475.84 1399.41 654.29 1399.41 874.42L1399.41 874.42Z" />
	</g>
</svg>