<svg version="1.2" baseProfile="tiny-ps" xmlns="http://www.w3.org/2000/svg" viewBox="0 0 1684 1190" width="1684" height="1190">
	<title>heaven-1987411-ai</title>
	<defs>
		<linearGradient id="grd1" gradientUnits="userSpaceOnUse"  x1="125.34" y1="884.978" x2="125.34" y2="218.362">
			<stop offset="0.005" stop-color="#cacbcd"  />
			<stop offset="1" stop-color="#ffffff"  />
		</linearGradient>
	</defs>
	<style>
		tspan { white-space:pre }
		.shp0 { fill: url(#grd1) } 
	</style>
	<g id="Ebene 1">
		<g id="&lt;Group&gt;">
			<g id="&lt;Group&gt;">
				<path id="&lt;Path&gt;" class="shp0" d="M278.31 396.35C332.29 307.25 464.49 197.53 634.15 201.85C718.01 203.98 808.75 270.19 871.36 298.79C910.11 229.63 981.97 184 1063.11 186.07C1134.79 187.89 1197.34 226.53 1235.22 284.5C1262.15 272.76 1291.71 266.57 1322.65 267.36C1442.03 270.4 1536.21 375.49 1532.99 502.08C1532.56 518.87 1567.4 760.02 1363.6 769.12C1353.85 774.79 1342.37 777.03 1328.86 774.39C1316.88 781.09 1304.61 786.79 1292.06 791.62C1245.47 851.04 1157.31 912.95 1047.87 910.16C986.37 908.6 919.83 860.04 873.91 839.07C845.49 889.78 792.79 923.25 733.29 921.73C680.72 920.4 634.84 892.06 607.06 849.55C587.32 858.16 565.64 862.69 542.94 862.12C498.49 860.99 458.83 840.54 430.84 808.56C287.21 817.49 132.19 683.2 135 572.75C136.68 506.88 165.38 341.47 278.31 396.35Z" />
			</g>
		</g>
	</g>
</svg>