<svg version="1.2" baseProfile="tiny-ps" xmlns="http://www.w3.org/2000/svg" viewBox="0 0 1684 1190" width="1684" height="1190">
	<title>heaven-1987411-ai</title>
	<defs>
		<linearGradient id="grd1" gradientUnits="userSpaceOnUse"  x1="176.378" y1="888.106" x2="176.378" y2="468.762">
			<stop offset="0" stop-color="#dcddde"  />
			<stop offset="1" stop-color="#ffffff"  />
		</linearGradient>
	</defs>
	<style>
		tspan { white-space:pre }
		.shp0 { fill: url(#grd1) } 
	</style>
	<g id="Ebene 1">
		<g id="&lt;Group&gt;">
			<g id="&lt;Group&gt;">
				<path id="&lt;Path&gt;" class="shp0" d="M309.52 449.45C357.55 370.18 475.17 272.57 626.11 276.41C700.71 278.31 781.44 337.21 837.14 362.65C871.62 301.13 935.54 260.53 1007.73 262.37C1071.5 263.99 1127.15 298.37 1160.86 349.94C1184.81 339.5 1211.11 333.99 1238.63 334.69C1344.85 337.4 1428.63 430.89 1425.77 543.52C1425.39 558.46 1456.38 772.99 1275.06 781.09C1266.4 786.13 1256.18 788.13 1244.16 785.78C1233.5 791.74 1222.58 796.81 1211.42 801.11C1169.97 853.96 1091.54 909.05 994.18 906.57C939.46 905.18 880.26 861.98 839.41 843.32C814.12 888.44 767.24 918.21 714.3 916.86C667.53 915.67 626.72 890.46 602.01 852.64C584.44 860.3 565.15 864.34 544.96 863.82C505.41 862.82 470.13 844.63 445.22 816.17C317.44 824.12 179.53 704.65 182.03 606.39C183.52 547.79 209.06 400.62 309.52 449.45Z" />
			</g>
		</g>
	</g>
</svg>