<svg version="1.2" baseProfile="tiny-ps" xmlns="http://www.w3.org/2000/svg" viewBox="0 0 1684 1190" width="1684" height="1190">
	<title>heaven-1987411-ai</title>
	<defs>
		<linearGradient id="grd1" gradientUnits="userSpaceOnUse"  x1="215.684" y1="888.106" x2="215.684" y2="468.762">
			<stop offset="0" stop-color="#dcddde"  />
			<stop offset="1" stop-color="#ffffff"  />
		</linearGradient>
	</defs>
	<style>
		tspan { white-space:pre }
		.shp0 { fill: url(#grd1) } 
	</style>
	<g id="Ebene 1">
		<g id="&lt;Group&gt;">
			<g id="&lt;Group&gt;">
				<path id="&lt;Path&gt;" class="shp0" d="M1339.37 449.45C1291.34 370.18 1173.73 272.57 1022.79 276.41C948.18 278.31 867.46 337.21 811.75 362.65C777.28 301.13 713.35 260.53 641.16 262.37C577.39 263.99 521.74 298.37 488.03 349.94C464.08 339.5 437.78 333.99 410.26 334.69C304.04 337.4 220.26 430.89 223.12 543.52C223.5 558.46 192.51 772.99 373.83 781.09C382.49 786.13 392.72 788.13 404.74 785.78C415.39 791.74 426.31 796.81 437.47 801.11C478.92 853.96 557.36 909.05 654.72 906.57C709.43 905.18 768.63 861.98 809.48 843.32C834.77 888.44 881.65 918.21 934.59 916.86C981.36 915.67 1022.17 890.46 1046.89 852.64C1064.45 860.3 1083.74 864.34 1103.93 863.82C1143.48 862.82 1178.76 844.63 1203.67 816.17C1331.45 824.12 1469.36 704.65 1466.86 606.39C1465.37 547.79 1439.84 400.62 1339.37 449.45Z" />
			</g>
		</g>
	</g>
</svg>